<svg width="355" height="303" viewBox="0 0 355 303" fill="none" xmlns="http://www.w3.org/2000/svg">
<mask id="path-1-inside-1_203_1116" fill="white">
<path d="M0.785156 18.7928C0.785156 8.41381 9.19901 0 19.578 0H335.479C345.858 0 354.272 8.41385 354.272 18.7929V284.196C354.272 294.575 345.858 302.989 335.479 302.989H19.578C9.19897 302.989 0.785156 294.575 0.785156 284.196V18.7928Z"/>
</mask>
<path d="M0.785156 18.7928C0.785156 8.41381 9.19901 0 19.578 0H335.479C345.858 0 354.272 8.41385 354.272 18.7929V284.196C354.272 294.575 345.858 302.989 335.479 302.989H19.578C9.19897 302.989 0.785156 294.575 0.785156 284.196V18.7928Z" fill="white"/>
<path d="M0.785156 18.7929C0.785156 2.891 13.6762 -10 29.578 -10H325.479C341.381 -10 354.272 2.891 354.272 18.7929C354.272 13.9367 345.858 10 335.479 10H19.578C9.199 10 0.785156 13.9367 0.785156 18.7929ZM354.272 302.989H0.785156H354.272ZM0.785156 302.989V0V302.989ZM354.272 0V302.989V0Z" fill="#1F4877" mask="url(#path-1-inside-1_203_1116)"/>
<path d="M202.624 140.473V108.645H193.868V90.2412H156.136V108.645H147.38V140.473H144.109V146.961C144.109 149.754 146.382 152.026 149.175 152.026H200.829C203.622 152.026 205.895 149.754 205.895 146.961V140.473H202.624ZM151 112.266H156.136V133.684H159.756V93.8614H190.248V133.684H193.868V112.266H199.004V140.473H178.139V141.71H171.864V140.473H151V112.266ZM202.274 146.961C202.274 147.758 201.626 148.406 200.829 148.406H149.175C148.378 148.406 147.73 147.758 147.73 146.961V144.093H168.244V145.33H181.76V144.093H202.274V146.961Z" fill="#1F4877"/>
<path d="M165.832 99.4121H184.174V103.032H165.832V99.4121Z" fill="#1F4877"/>
<path d="M165.832 106.895H184.174V110.515H165.832V106.895Z" fill="#1F4877"/>
<path d="M165.832 114.376H184.174V117.996H165.832V114.376Z" fill="#1F4877"/>
<path d="M165.832 121.857H184.174V125.478H165.832V121.857Z" fill="#1F4877"/>
<path d="M90.6708 215.178V218.466H83.8068V222.018H88.9428V225.21H83.8068V232.026H79.7028V215.178H90.6708ZM100.796 232.194C99.2118 232.194 97.7558 231.826 96.4278 231.09C95.1158 230.354 94.0678 229.33 93.2838 228.018C92.5158 226.69 92.1318 225.202 92.1318 223.554C92.1318 221.906 92.5158 220.426 93.2838 219.114C94.0678 217.802 95.1158 216.778 96.4278 216.042C97.7558 215.306 99.2118 214.938 100.796 214.938C102.38 214.938 103.828 215.306 105.14 216.042C106.468 216.778 107.508 217.802 108.26 219.114C109.028 220.426 109.412 221.906 109.412 223.554C109.412 225.202 109.028 226.69 108.26 228.018C107.492 229.33 106.452 230.354 105.14 231.09C103.828 231.826 102.38 232.194 100.796 232.194ZM100.796 228.45C102.14 228.45 103.212 228.002 104.012 227.106C104.828 226.21 105.236 225.026 105.236 223.554C105.236 222.066 104.828 220.882 104.012 220.002C103.212 219.106 102.14 218.658 100.796 218.658C99.4358 218.658 98.3478 219.098 97.5318 219.978C96.7318 220.858 96.3318 222.05 96.3318 223.554C96.3318 225.042 96.7318 226.234 97.5318 227.13C98.3478 228.01 99.4358 228.45 100.796 228.45ZM119.663 232.194C118.079 232.194 116.623 231.826 115.295 231.09C113.983 230.354 112.935 229.33 112.151 228.018C111.383 226.69 110.999 225.202 110.999 223.554C110.999 221.906 111.383 220.426 112.151 219.114C112.935 217.802 113.983 216.778 115.295 216.042C116.623 215.306 118.079 214.938 119.663 214.938C121.247 214.938 122.695 215.306 124.007 216.042C125.335 216.778 126.375 217.802 127.127 219.114C127.895 220.426 128.279 221.906 128.279 223.554C128.279 225.202 127.895 226.69 127.127 228.018C126.359 229.33 125.319 230.354 124.007 231.09C122.695 231.826 121.247 232.194 119.663 232.194ZM119.663 228.45C121.007 228.45 122.079 228.002 122.879 227.106C123.695 226.21 124.103 225.026 124.103 223.554C124.103 222.066 123.695 220.882 122.879 220.002C122.079 219.106 121.007 218.658 119.663 218.658C118.303 218.658 117.215 219.098 116.399 219.978C115.599 220.858 115.199 222.05 115.199 223.554C115.199 225.042 115.599 226.234 116.399 227.13C117.215 228.01 118.303 228.45 119.663 228.45ZM136.874 215.178C138.65 215.178 140.202 215.53 141.53 216.234C142.858 216.938 143.882 217.93 144.602 219.21C145.338 220.474 145.706 221.938 145.706 223.602C145.706 225.25 145.338 226.714 144.602 227.994C143.882 229.274 142.85 230.266 141.506 230.97C140.178 231.674 138.634 232.026 136.874 232.026H130.562V215.178H136.874ZM136.61 228.474C138.162 228.474 139.37 228.05 140.234 227.202C141.098 226.354 141.53 225.154 141.53 223.602C141.53 222.05 141.098 220.842 140.234 219.978C139.37 219.114 138.162 218.682 136.61 218.682H134.666V228.474H136.61ZM157.19 215.178V232.026H153.086V215.178H157.19ZM175.236 232.026H171.132L164.268 221.634V232.026H160.164V215.178H164.268L171.132 225.618V215.178H175.236V232.026ZM184.523 215.178C186.299 215.178 187.851 215.53 189.179 216.234C190.507 216.938 191.531 217.93 192.251 219.21C192.987 220.474 193.355 221.938 193.355 223.602C193.355 225.25 192.987 226.714 192.251 227.994C191.531 229.274 190.499 230.266 189.155 230.97C187.827 231.674 186.283 232.026 184.523 232.026H178.211V215.178H184.523ZM184.259 228.474C185.811 228.474 187.019 228.05 187.883 227.202C188.747 226.354 189.179 225.154 189.179 223.602C189.179 222.05 188.747 220.842 187.883 219.978C187.019 219.114 185.811 218.682 184.259 218.682H182.315V228.474H184.259ZM199.68 215.178V225.258C199.68 226.266 199.928 227.042 200.424 227.586C200.92 228.13 201.648 228.402 202.608 228.402C203.568 228.402 204.304 228.13 204.816 227.586C205.328 227.042 205.584 226.266 205.584 225.258V215.178H209.688V225.234C209.688 226.738 209.368 228.01 208.728 229.05C208.088 230.09 207.224 230.874 206.136 231.402C205.064 231.93 203.864 232.194 202.536 232.194C201.208 232.194 200.016 231.938 198.96 231.426C197.92 230.898 197.096 230.114 196.488 229.074C195.88 228.018 195.576 226.738 195.576 225.234V215.178H199.68ZM218.666 232.194C217.434 232.194 216.33 231.994 215.354 231.594C214.378 231.194 213.594 230.602 213.002 229.818C212.426 229.034 212.122 228.09 212.09 226.986H216.458C216.522 227.61 216.738 228.09 217.106 228.426C217.474 228.746 217.954 228.906 218.546 228.906C219.154 228.906 219.634 228.77 219.986 228.498C220.338 228.21 220.514 227.818 220.514 227.322C220.514 226.906 220.37 226.562 220.082 226.29C219.81 226.018 219.466 225.794 219.05 225.618C218.65 225.442 218.074 225.242 217.322 225.018C216.234 224.682 215.346 224.346 214.658 224.01C213.97 223.674 213.378 223.178 212.882 222.522C212.386 221.866 212.138 221.01 212.138 219.954C212.138 218.386 212.706 217.162 213.842 216.282C214.978 215.386 216.458 214.938 218.282 214.938C220.138 214.938 221.634 215.386 222.77 216.282C223.906 217.162 224.514 218.394 224.594 219.978H220.154C220.122 219.434 219.922 219.01 219.554 218.706C219.186 218.386 218.714 218.226 218.138 218.226C217.642 218.226 217.242 218.362 216.938 218.634C216.634 218.89 216.482 219.266 216.482 219.762C216.482 220.306 216.738 220.73 217.25 221.034C217.762 221.338 218.562 221.666 219.65 222.018C220.738 222.386 221.618 222.738 222.29 223.074C222.978 223.41 223.57 223.898 224.066 224.538C224.562 225.178 224.81 226.002 224.81 227.01C224.81 227.97 224.562 228.842 224.066 229.626C223.586 230.41 222.882 231.034 221.954 231.498C221.026 231.962 219.93 232.194 218.666 232.194ZM239.456 215.178V218.466H234.992V232.026H230.888V218.466H226.424V215.178H239.456ZM250.107 232.026L246.603 225.666H245.619V232.026H241.515V215.178H248.403C249.731 215.178 250.859 215.41 251.787 215.874C252.731 216.338 253.435 216.978 253.899 217.794C254.363 218.594 254.595 219.49 254.595 220.482C254.595 221.602 254.275 222.602 253.635 223.482C253.011 224.362 252.083 224.986 250.851 225.354L254.739 232.026H250.107ZM245.619 222.762H248.163C248.915 222.762 249.475 222.578 249.843 222.21C250.227 221.842 250.419 221.322 250.419 220.65C250.419 220.01 250.227 219.506 249.843 219.138C249.475 218.77 248.915 218.586 248.163 218.586H245.619V222.762ZM271.62 215.178L265.788 226.458V232.026H261.684V226.458L255.852 215.178H260.508L263.772 222.234L267.012 215.178H271.62Z" fill="#2B337C"/>
</svg>
