<svg width="355" height="303" viewBox="0 0 355 303" fill="none" xmlns="http://www.w3.org/2000/svg">
<mask id="path-1-inside-1_203_1234" fill="white">
<path d="M0.785156 18.7928C0.785156 8.41381 9.19901 0 19.578 0H335.479C345.858 0 354.272 8.41385 354.272 18.7929V284.196C354.272 294.575 345.858 302.989 335.479 302.989H19.578C9.19897 302.989 0.785156 294.575 0.785156 284.196V18.7928Z"/>
</mask>
<path d="M0.785156 18.7928C0.785156 8.41381 9.19901 0 19.578 0H335.479C345.858 0 354.272 8.41385 354.272 18.7929V284.196C354.272 294.575 345.858 302.989 335.479 302.989H19.578C9.19897 302.989 0.785156 294.575 0.785156 284.196V18.7928Z" fill="white"/>
<path d="M0.785156 18.7929C0.785156 2.891 13.6762 -10 29.578 -10H325.479C341.381 -10 354.272 2.891 354.272 18.7929C354.272 13.9367 345.858 10 335.479 10H19.578C9.199 10 0.785156 13.9367 0.785156 18.7929ZM354.272 302.989H0.785156H354.272ZM0.785156 302.989V0V302.989ZM354.272 0V302.989V0Z" fill="#1F4877" mask="url(#path-1-inside-1_203_1234)"/>
<path d="M145.098 151.975C145.098 152.975 145.908 153.785 146.908 153.785H154.148C155.148 153.785 155.958 152.975 155.958 151.975V143.528C155.958 142.528 155.148 141.718 154.148 141.718H146.908C145.908 141.718 145.098 142.528 145.098 143.528V151.975ZM148.718 145.338H152.338V150.165H148.718V145.338Z" fill="#1F4877"/>
<path d="M170.439 151.975V134.579C170.439 133.579 169.628 132.769 168.629 132.769H161.388C160.389 132.769 159.578 133.579 159.578 134.579V151.975C159.578 152.975 160.389 153.785 161.388 153.785H168.629C169.628 153.785 170.439 152.975 170.439 151.975ZM166.819 150.165H163.198V136.389H166.819V150.165Z" fill="#1F4877"/>
<path d="M184.919 151.975V121.161C184.919 120.161 184.109 119.351 183.109 119.351H175.869C174.869 119.351 174.059 120.161 174.059 121.161V151.975C174.059 152.975 174.869 153.785 175.869 153.785H183.109C184.109 153.785 184.919 152.975 184.919 151.975ZM181.299 150.165H177.679V122.971H181.299V150.165Z" fill="#1F4877"/>
<path d="M199.4 151.975V107.813C199.4 106.813 198.589 106.003 197.59 106.003H190.349C189.35 106.003 188.539 106.813 188.539 107.813V151.975C188.539 152.975 189.35 153.785 190.349 153.785H197.59C198.589 153.785 199.4 152.975 199.4 151.975ZM195.779 150.165H192.159V109.623H195.779V150.165Z" fill="#1F4877"/>
<path d="M199.111 92.3131C198.284 91.7512 197.158 91.9661 196.597 92.7931L192.541 98.7625H186.356C185.683 98.7625 185.065 99.1364 184.753 99.7331L178.273 112.11H172.249C171.588 112.11 170.98 112.47 170.662 113.05L163.817 125.528H157.768C157.172 125.528 156.615 125.821 156.277 126.313L150.662 134.477H146.908C145.908 134.477 145.098 135.288 145.098 136.287C145.098 137.287 145.908 138.098 146.908 138.098H151.614C152.21 138.098 152.768 137.804 153.105 137.313L158.72 129.148H164.888C165.549 129.148 166.157 128.788 166.475 128.209L173.321 115.73H179.369C180.042 115.73 180.66 115.356 180.973 114.76L187.452 102.383H193.499C194.099 102.383 194.66 102.086 194.996 101.59L199.591 94.8277C200.153 94.0007 199.938 92.8749 199.111 92.3131Z" fill="#1F4877"/>
<path d="M67.08 232.785L63.576 226.425H62.592V232.785H58.488V215.937H65.376C66.704 215.937 67.832 216.169 68.76 216.633C69.704 217.097 70.408 217.737 70.872 218.553C71.336 219.353 71.568 220.249 71.568 221.241C71.568 222.361 71.248 223.361 70.608 224.241C69.984 225.121 69.056 225.745 67.824 226.113L71.712 232.785H67.08ZM62.592 223.521H65.136C65.888 223.521 66.448 223.337 66.816 222.969C67.2 222.601 67.392 222.081 67.392 221.409C67.392 220.769 67.2 220.265 66.816 219.897C66.448 219.529 65.888 219.345 65.136 219.345H62.592V223.521ZM78.2483 219.225V222.633H83.7443V225.801H78.2483V229.497H84.4643V232.785H74.1443V215.937H84.4643V219.225H78.2483ZM86.4326 224.337C86.4326 222.673 86.7926 221.193 87.5126 219.897C88.2326 218.585 89.2326 217.569 90.5126 216.849C91.8086 216.113 93.2726 215.745 94.9046 215.745C96.9046 215.745 98.6166 216.273 100.041 217.329C101.465 218.385 102.417 219.825 102.897 221.649H98.3846C98.0486 220.945 97.5686 220.409 96.9446 220.041C96.3366 219.673 95.6406 219.489 94.8566 219.489C93.5926 219.489 92.5686 219.929 91.7846 220.809C91.0006 221.689 90.6086 222.865 90.6086 224.337C90.6086 225.809 91.0006 226.985 91.7846 227.865C92.5686 228.745 93.5926 229.185 94.8566 229.185C95.6406 229.185 96.3366 229.001 96.9446 228.633C97.5686 228.265 98.0486 227.729 98.3846 227.025H102.897C102.417 228.849 101.465 230.289 100.041 231.345C98.6166 232.385 96.9046 232.905 94.9046 232.905C93.2726 232.905 91.8086 232.545 90.5126 231.825C89.2326 231.089 88.2326 230.073 87.5126 228.777C86.7926 227.481 86.4326 226.001 86.4326 224.337ZM119.858 215.937L114.026 227.217V232.785H109.922V227.217L104.09 215.937H108.746L112.01 222.993L115.25 215.937H119.858ZM120.815 224.337C120.815 222.673 121.175 221.193 121.895 219.897C122.615 218.585 123.615 217.569 124.895 216.849C126.191 216.113 127.655 215.745 129.287 215.745C131.287 215.745 132.999 216.273 134.423 217.329C135.847 218.385 136.799 219.825 137.279 221.649H132.767C132.431 220.945 131.951 220.409 131.327 220.041C130.719 219.673 130.023 219.489 129.239 219.489C127.975 219.489 126.951 219.929 126.167 220.809C125.383 221.689 124.991 222.865 124.991 224.337C124.991 225.809 125.383 226.985 126.167 227.865C126.951 228.745 127.975 229.185 129.239 229.185C130.023 229.185 130.719 229.001 131.327 228.633C131.951 228.265 132.431 227.729 132.767 227.025H137.279C136.799 228.849 135.847 230.289 134.423 231.345C132.999 232.385 131.287 232.905 129.287 232.905C127.655 232.905 126.191 232.545 124.895 231.825C123.615 231.089 122.615 230.073 121.895 228.777C121.175 227.481 120.815 226.001 120.815 224.337ZM143.897 229.617H149.273V232.785H139.793V215.937H143.897V229.617ZM155.334 219.225V222.633H160.83V225.801H155.334V229.497H161.55V232.785H151.23V215.937H161.55V219.225H155.334ZM173.405 215.937V232.785H169.301V215.937H173.405ZM191.451 232.785H187.347L180.483 222.393V232.785H176.379V215.937H180.483L187.347 226.377V215.937H191.451V232.785ZM200.738 215.937C202.514 215.937 204.066 216.289 205.394 216.993C206.722 217.697 207.746 218.689 208.466 219.969C209.202 221.233 209.57 222.697 209.57 224.361C209.57 226.009 209.202 227.473 208.466 228.753C207.746 230.033 206.714 231.025 205.37 231.729C204.042 232.433 202.498 232.785 200.738 232.785H194.426V215.937H200.738ZM200.474 229.233C202.026 229.233 203.234 228.809 204.098 227.961C204.962 227.113 205.394 225.913 205.394 224.361C205.394 222.809 204.962 221.601 204.098 220.737C203.234 219.873 202.026 219.441 200.474 219.441H198.53V229.233H200.474ZM215.895 215.937V226.017C215.895 227.025 216.143 227.801 216.639 228.345C217.135 228.889 217.863 229.161 218.823 229.161C219.783 229.161 220.519 228.889 221.031 228.345C221.543 227.801 221.799 227.025 221.799 226.017V215.937H225.903V225.993C225.903 227.497 225.583 228.769 224.943 229.809C224.303 230.849 223.439 231.633 222.351 232.161C221.279 232.689 220.079 232.953 218.751 232.953C217.423 232.953 216.231 232.697 215.175 232.185C214.135 231.657 213.311 230.873 212.703 229.833C212.095 228.777 211.791 227.497 211.791 225.993V215.937H215.895ZM234.881 232.953C233.649 232.953 232.545 232.753 231.569 232.353C230.593 231.953 229.809 231.361 229.217 230.577C228.641 229.793 228.337 228.849 228.305 227.745H232.673C232.737 228.369 232.953 228.849 233.321 229.185C233.689 229.505 234.169 229.665 234.761 229.665C235.369 229.665 235.849 229.529 236.201 229.257C236.553 228.969 236.729 228.577 236.729 228.081C236.729 227.665 236.585 227.321 236.297 227.049C236.025 226.777 235.681 226.553 235.265 226.377C234.865 226.201 234.289 226.001 233.537 225.777C232.449 225.441 231.561 225.105 230.873 224.769C230.185 224.433 229.593 223.937 229.097 223.281C228.601 222.625 228.353 221.769 228.353 220.713C228.353 219.145 228.921 217.921 230.057 217.041C231.193 216.145 232.673 215.697 234.497 215.697C236.353 215.697 237.849 216.145 238.985 217.041C240.121 217.921 240.729 219.153 240.809 220.737H236.369C236.337 220.193 236.137 219.769 235.769 219.465C235.401 219.145 234.929 218.985 234.353 218.985C233.857 218.985 233.457 219.121 233.153 219.393C232.849 219.649 232.697 220.025 232.697 220.521C232.697 221.065 232.953 221.489 233.465 221.793C233.977 222.097 234.777 222.425 235.865 222.777C236.953 223.145 237.833 223.497 238.505 223.833C239.193 224.169 239.785 224.657 240.281 225.297C240.777 225.937 241.025 226.761 241.025 227.769C241.025 228.729 240.777 229.601 240.281 230.385C239.801 231.169 239.097 231.793 238.169 232.257C237.241 232.721 236.145 232.953 234.881 232.953ZM255.671 215.937V219.225H251.207V232.785H247.103V219.225H242.639V215.937H255.671ZM266.322 232.785L262.818 226.425H261.834V232.785H257.73V215.937H264.618C265.946 215.937 267.074 216.169 268.002 216.633C268.946 217.097 269.65 217.737 270.114 218.553C270.578 219.353 270.81 220.249 270.81 221.241C270.81 222.361 270.49 223.361 269.85 224.241C269.226 225.121 268.298 225.745 267.066 226.113L270.954 232.785H266.322ZM261.834 223.521H264.378C265.13 223.521 265.69 223.337 266.058 222.969C266.442 222.601 266.634 222.081 266.634 221.409C266.634 220.769 266.442 220.265 266.058 219.897C265.69 219.529 265.13 219.345 264.378 219.345H261.834V223.521ZM287.834 215.937L282.002 227.217V232.785H277.898V227.217L272.066 215.937H276.722L279.986 222.993L283.226 215.937H287.834Z" fill="#2B337C"/>
</svg>
