<svg width="62" height="62" viewBox="0 0 62 62" fill="none" xmlns="http://www.w3.org/2000/svg">
<path d="M61.8945 38.7888V22.9846H57.5233C56.9804 21.1587 56.2506 19.397 55.3425 17.7215L58.434 14.6301L47.2587 3.45471L44.1673 6.54614C42.4917 5.63819 40.7301 4.90811 38.9042 4.36532V-0.00585938H23.0998V4.36532C21.2739 4.90811 19.5123 5.63807 17.8368 6.54614L14.7453 3.45471L3.56995 14.6301L6.66138 17.7215C5.75342 19.3971 5.02335 21.1587 4.48055 22.9846H0.109375V38.7889H4.48055C5.02347 40.6149 5.75342 42.3765 6.66138 44.052L3.56995 47.1435L14.7453 58.3188L17.8368 55.2274C19.5122 56.1354 21.2738 56.8654 23.0998 57.4082V61.7793H38.9042V57.4081C40.7301 56.8652 42.4918 56.1352 44.1673 55.2273L47.2587 58.3187L58.434 47.1433L55.3426 44.0519C56.2506 42.3765 56.9806 40.6149 57.5235 38.7888H61.8945ZM54.7119 35.1686L54.3774 36.5537C53.7926 38.9748 52.8371 41.2807 51.5375 43.4073L50.7944 44.6233L53.3144 47.1433L47.2588 53.1989L44.7389 50.679L43.5227 51.4221C41.396 52.7217 39.0901 53.6772 36.6692 54.262L35.2841 54.5965V58.1591H26.7202V54.5966L25.3351 54.2621C22.914 53.6774 20.6082 52.7219 18.4815 51.4222L17.2655 50.6791L14.7455 53.199L8.68991 47.1435L11.2098 44.6234L10.4667 43.4074C9.16705 41.2807 8.21156 38.9749 7.62677 36.5538L7.29226 35.1687H3.7296V26.6048H7.29214L7.62665 25.2196C8.21144 22.7987 9.16693 20.4928 10.4666 18.3661L11.2097 17.1499L8.68979 14.63L14.7453 8.57431L17.2654 11.0942L18.4814 10.3511C20.608 9.05146 22.9139 8.09596 25.3349 7.51129L26.7201 7.17678V3.61436H35.284V7.17691L36.6692 7.51141C39.0901 8.09608 41.396 9.05158 43.5227 10.3512L44.7388 11.0943L47.2588 8.57443L53.3144 14.6301L50.7944 17.15L51.5375 18.3662C52.8372 20.4928 53.7926 22.7987 54.3774 25.2197L54.7119 26.605H58.2743V35.1688L54.7119 35.1686Z" fill="#1F4877"/>
<path d="M31.0008 9.76855C19.3563 9.76855 9.88281 19.2421 9.88281 30.8865C9.88281 42.531 19.3563 52.0045 31.0008 52.0045C42.6452 52.0045 52.1188 42.531 52.1188 30.8865C52.1188 19.2421 42.6452 9.76855 31.0008 9.76855ZM31.0008 48.3843C21.3525 48.3843 13.503 40.5348 13.503 30.8865C13.503 21.2383 21.3525 13.3888 31.0008 13.3888C40.649 13.3888 48.4985 21.2383 48.4985 30.8865C48.4985 40.5348 40.649 48.3843 31.0008 48.3843Z" fill="#1F4877"/>
<path d="M37.0156 28.2728L40.2883 31.5456L37.0156 34.8184L39.5755 37.3781L45.4082 31.5456L39.5755 25.7129L37.0156 28.2728Z" fill="#1F4877"/>
<path d="M22.4264 25.7129L16.5938 31.5456L22.4264 37.3781L24.9863 34.8184L21.7136 31.5456L24.9863 28.2728L22.4264 25.7129Z" fill="#1F4877"/>
<path d="M27.1719 42.5527L31.4034 18.5985L34.9693 19.2285L30.7378 43.1827L27.1719 42.5527Z" fill="#1F4877"/>
</svg>
