<svg width="56" height="62" viewBox="0 0 56 62" fill="none" xmlns="http://www.w3.org/2000/svg">
<path d="M0.597656 59.9692C0.597656 60.9689 1.4081 61.7793 2.40777 61.7793H9.64822C10.6479 61.7793 11.4583 60.9689 11.4583 59.9692V51.522C11.4583 50.5224 10.6479 49.7119 9.64822 49.7119H2.40777C1.4081 49.7119 0.597656 50.5224 0.597656 51.522V59.9692ZM4.21788 53.3321H7.8381V58.1591H4.21788V53.3321Z" fill="#1F4877"/>
<path d="M25.9388 59.9692V42.5728C25.9388 41.5731 25.1283 40.7627 24.1287 40.7627H16.8882C15.8886 40.7627 15.0781 41.5731 15.0781 42.5728V59.9692C15.0781 60.9688 15.8886 61.7793 16.8882 61.7793H24.1287C25.1283 61.7793 25.9388 60.9688 25.9388 59.9692ZM22.3186 58.159H18.6983V44.3829H22.3186V58.159Z" fill="#1F4877"/>
<path d="M40.4192 59.9693V29.1548C40.4192 28.1552 39.6088 27.3447 38.6091 27.3447H31.3687C30.369 27.3447 29.5586 28.1552 29.5586 29.1548V59.9693C29.5586 60.969 30.369 61.7794 31.3687 61.7794H38.6091C39.6088 61.7794 40.4192 60.969 40.4192 59.9693ZM36.799 58.1592H33.1788V30.9649H36.799V58.1592Z" fill="#1F4877"/>
<path d="M54.8997 59.9693V15.8072C54.8997 14.8075 54.0893 13.9971 53.0896 13.9971H45.8492C44.8495 13.9971 44.0391 14.8075 44.0391 15.8072V59.9693C44.0391 60.969 44.8495 61.7794 45.8492 61.7794H53.0896C54.0893 61.7794 54.8997 60.969 54.8997 59.9693ZM51.2795 58.1592H47.6593V17.6173H51.2795V58.1592Z" fill="#1F4877"/>
<path d="M54.6112 0.307219C53.7842 -0.254637 52.6584 -0.0397174 52.0967 0.787259L48.0407 6.75662H41.8565C41.183 6.75662 40.5651 7.13059 40.2528 7.7272L33.7734 20.1042H27.7492C27.0884 20.1042 26.4801 20.4643 26.1622 21.0437L19.3166 33.5223H13.2684C12.6724 33.5223 12.1146 33.8156 11.777 34.3067L6.16204 42.4714H2.40776C1.4081 42.4714 0.597656 43.2819 0.597656 44.2815C0.597656 45.2812 1.4081 46.0916 2.40776 46.0916H7.11403C7.70992 46.0916 8.26779 45.7983 8.60544 45.3073L14.2204 37.1425H20.3881C21.0489 37.1425 21.6573 36.7824 21.9751 36.203L28.8208 23.7244H34.869C35.5425 23.7244 36.1603 23.3505 36.4726 22.7538L42.9521 10.3768H48.9993C49.5989 10.3768 50.1595 10.08 50.4964 9.58401L55.0911 2.82182C55.653 1.99484 55.438 0.869076 54.6112 0.307219Z" fill="#1F4877"/>
</svg>
