<svg width="62" height="62" viewBox="0 0 62 62" fill="none" xmlns="http://www.w3.org/2000/svg">
<path d="M58.6241 50.232V18.4042H49.8681V0H12.1358V18.4042H3.37983V50.232H0.109375V56.7197C0.109375 59.5126 2.38191 61.7851 5.17486 61.7851H56.829C59.622 61.7851 61.8945 59.5126 61.8945 56.7197V50.232H58.6241ZM7.00006 22.0244H12.1358V43.4427H15.756V3.62022H46.2479V43.4427H49.8681V22.0244H55.0038V50.232H34.1395V51.4689H27.8644V50.232H7.00006V22.0244ZM58.2743 56.7197C58.2743 57.5168 57.6261 58.1649 56.829 58.1649H5.17486C4.37775 58.1649 3.7296 57.5168 3.7296 56.7197V53.8522H24.2442V55.0891H37.7597V53.8522H58.2743V56.7197Z" fill="#1F4877"/>
<path d="M21.832 9.1709H40.1745V12.7911H21.832V9.1709Z" fill="#1F4877"/>
<path d="M21.832 16.6533H40.1745V20.2735H21.832V16.6533Z" fill="#1F4877"/>
<path d="M21.832 24.1348H40.1745V27.755H21.832V24.1348Z" fill="#1F4877"/>
<path d="M21.832 31.6162H40.1745V35.2364H21.832V31.6162Z" fill="#1F4877"/>
</svg>
