<svg width="63" height="62" viewBox="0 0 63 62" fill="none" xmlns="http://www.w3.org/2000/svg">
<path d="M62.3945 38.7888V22.9846H58.0233C57.4804 21.1587 56.7506 19.397 55.8425 17.7215L58.934 14.6301L47.7587 3.45471L44.6673 6.54614C42.9917 5.63819 41.2301 4.90811 39.4042 4.36532V-0.00585938H23.5998V4.36532C21.7739 4.90811 20.0123 5.63807 18.3368 6.54614L15.2453 3.45471L4.06995 14.6301L7.16138 17.7215C6.25342 19.3971 5.52335 21.1587 4.98055 22.9846H0.609375V38.7889H4.98055C5.52347 40.6149 6.25342 42.3765 7.16138 44.052L4.06995 47.1435L15.2453 58.3188L18.3368 55.2274C20.0122 56.1354 21.7738 56.8654 23.5998 57.4082V61.7793H39.4042V57.4081C41.2301 56.8652 42.9918 56.1352 44.6673 55.2273L47.7587 58.3187L58.934 47.1433L55.8426 44.0519C56.7506 42.3765 57.4806 40.6149 58.0235 38.7888H62.3945ZM55.2119 35.1686L54.8774 36.5537C54.2926 38.9748 53.3371 41.2807 52.0375 43.4073L51.2944 44.6233L53.8144 47.1433L47.7588 53.1989L45.2389 50.679L44.0227 51.4221C41.896 52.7217 39.5901 53.6772 37.1692 54.262L35.7841 54.5965V58.1591H27.2202V54.5966L25.8351 54.2621C23.414 53.6774 21.1082 52.7219 18.9815 51.4222L17.7655 50.6791L15.2455 53.199L9.18991 47.1435L11.7098 44.6234L10.9667 43.4074C9.66705 41.2807 8.71156 38.9749 8.12677 36.5538L7.79226 35.1687H4.2296V26.6048H7.79214L8.12665 25.2196C8.71144 22.7987 9.66693 20.4928 10.9666 18.3661L11.7097 17.1499L9.18979 14.63L15.2453 8.57431L17.7654 11.0942L18.9814 10.3511C21.108 9.05146 23.4139 8.09596 25.8349 7.51129L27.2201 7.17678V3.61436H35.784V7.17691L37.1692 7.51141C39.5901 8.09608 41.896 9.05158 44.0227 10.3512L45.2388 11.0943L47.7588 8.57443L53.8144 14.6301L51.2944 17.15L52.0375 18.3662C53.3372 20.4928 54.2926 22.7987 54.8774 25.2197L55.2119 26.605H58.7743V35.1688L55.2119 35.1686Z" fill="#1F4877"/>
<path d="M31.5008 9.76855C19.8563 9.76855 10.3828 19.2421 10.3828 30.8865C10.3828 42.531 19.8563 52.0045 31.5008 52.0045C43.1452 52.0045 52.6188 42.531 52.6188 30.8865C52.6188 19.2421 43.1452 9.76855 31.5008 9.76855ZM31.5008 48.3843C21.8525 48.3843 14.003 40.5348 14.003 30.8865C14.003 21.2383 21.8525 13.3888 31.5008 13.3888C41.149 13.3888 48.9985 21.2383 48.9985 30.8865C48.9985 40.5348 41.149 48.3843 31.5008 48.3843Z" fill="#1F4877"/>
<path d="M37.5156 28.2728L40.7883 31.5456L37.5156 34.8184L40.0755 37.3781L45.9082 31.5456L40.0755 25.7129L37.5156 28.2728Z" fill="#1F4877"/>
<path d="M22.9264 25.7129L17.0938 31.5456L22.9264 37.3781L25.4863 34.8184L22.2136 31.5456L25.4863 28.2728L22.9264 25.7129Z" fill="#1F4877"/>
<path d="M27.6719 42.5527L31.9034 18.5985L35.4693 19.2285L31.2378 43.1827L27.6719 42.5527Z" fill="#1F4877"/>
</svg>
