<svg width="490" height="313" viewBox="0 0 490 313" fill="none" xmlns="http://www.w3.org/2000/svg">
<mask id="path-1-inside-1_203_1780" fill="white">
<path d="M0 18.787C0 8.40799 8.41385 -0.00585938 18.7929 -0.00585938H471.207C481.586 -0.00585938 490 8.40799 490 18.787V294.201C490 304.58 481.586 312.994 471.207 312.994H18.7928C8.41383 312.994 0 304.58 0 294.201V18.787Z"/>
</mask>
<path d="M0 18.787C0 8.40799 8.41385 -0.00585938 18.7929 -0.00585938H471.207C481.586 -0.00585938 490 8.40799 490 18.787V294.201C490 304.58 481.586 312.994 471.207 312.994H18.7928C8.41383 312.994 0 304.58 0 294.201V18.787Z" fill="#E1E1E1"/>
<path d="M0 18.787C0 2.88514 12.891 -10.0059 28.7929 -10.0059H461.207C477.109 -10.0059 490 2.88514 490 18.787C490 13.9308 481.586 9.99414 471.207 9.99414H18.7929C8.41385 9.99414 0 13.9308 0 18.787ZM490 312.994H0H490ZM0 312.994V-0.00585938V312.994ZM490 -0.00585938V312.994V-0.00585938Z" fill="#1F4877" mask="url(#path-1-inside-1_203_1780)"/>
<path d="M272.624 132.226V100.398H263.868V81.9941H226.136V100.398H217.38V132.226H214.109V138.714C214.109 141.507 216.382 143.779 219.175 143.779H270.829C273.622 143.779 275.895 141.507 275.895 138.714V132.226H272.624ZM221 104.019H226.136V125.437H229.756V85.6144H260.248V125.437H263.868V104.019H269.004V132.226H248.139V133.463H241.864V132.226H221V104.019ZM272.274 138.714C272.274 139.511 271.626 140.159 270.829 140.159H219.175C218.378 140.159 217.73 139.511 217.73 138.714V135.846H238.244V137.083H251.76V135.846H272.274V138.714Z" fill="#1F4877"/>
<path d="M235.832 91.165H254.174V94.7853H235.832V91.165Z" fill="#1F4877"/>
<path d="M235.832 98.6475H254.174V102.268H235.832V98.6475Z" fill="#1F4877"/>
<path d="M235.832 106.129H254.174V109.749H235.832V106.129Z" fill="#1F4877"/>
<path d="M235.832 113.61H254.174V117.231H235.832V113.61Z" fill="#1F4877"/>
<path d="M160.671 206.931V210.219H153.807V213.771H158.943V216.963H153.807V223.779H149.703V206.931H160.671ZM170.796 223.947C169.212 223.947 167.756 223.579 166.428 222.843C165.116 222.107 164.068 221.083 163.284 219.771C162.516 218.443 162.132 216.955 162.132 215.307C162.132 213.659 162.516 212.179 163.284 210.867C164.068 209.555 165.116 208.531 166.428 207.795C167.756 207.059 169.212 206.691 170.796 206.691C172.38 206.691 173.828 207.059 175.14 207.795C176.468 208.531 177.508 209.555 178.26 210.867C179.028 212.179 179.412 213.659 179.412 215.307C179.412 216.955 179.028 218.443 178.26 219.771C177.492 221.083 176.452 222.107 175.14 222.843C173.828 223.579 172.38 223.947 170.796 223.947ZM170.796 220.203C172.14 220.203 173.212 219.755 174.012 218.859C174.828 217.963 175.236 216.779 175.236 215.307C175.236 213.819 174.828 212.635 174.012 211.755C173.212 210.859 172.14 210.411 170.796 210.411C169.436 210.411 168.348 210.851 167.532 211.731C166.732 212.611 166.332 213.803 166.332 215.307C166.332 216.795 166.732 217.987 167.532 218.883C168.348 219.763 169.436 220.203 170.796 220.203ZM189.663 223.947C188.079 223.947 186.623 223.579 185.295 222.843C183.983 222.107 182.935 221.083 182.151 219.771C181.383 218.443 180.999 216.955 180.999 215.307C180.999 213.659 181.383 212.179 182.151 210.867C182.935 209.555 183.983 208.531 185.295 207.795C186.623 207.059 188.079 206.691 189.663 206.691C191.247 206.691 192.695 207.059 194.007 207.795C195.335 208.531 196.375 209.555 197.127 210.867C197.895 212.179 198.279 213.659 198.279 215.307C198.279 216.955 197.895 218.443 197.127 219.771C196.359 221.083 195.319 222.107 194.007 222.843C192.695 223.579 191.247 223.947 189.663 223.947ZM189.663 220.203C191.007 220.203 192.079 219.755 192.879 218.859C193.695 217.963 194.103 216.779 194.103 215.307C194.103 213.819 193.695 212.635 192.879 211.755C192.079 210.859 191.007 210.411 189.663 210.411C188.303 210.411 187.215 210.851 186.399 211.731C185.599 212.611 185.199 213.803 185.199 215.307C185.199 216.795 185.599 217.987 186.399 218.883C187.215 219.763 188.303 220.203 189.663 220.203ZM206.874 206.931C208.65 206.931 210.202 207.283 211.53 207.987C212.858 208.691 213.882 209.683 214.602 210.963C215.338 212.227 215.706 213.691 215.706 215.355C215.706 217.003 215.338 218.467 214.602 219.747C213.882 221.027 212.85 222.019 211.506 222.723C210.178 223.427 208.634 223.779 206.874 223.779H200.562V206.931H206.874ZM206.61 220.227C208.162 220.227 209.37 219.803 210.234 218.955C211.098 218.107 211.53 216.907 211.53 215.355C211.53 213.803 211.098 212.595 210.234 211.731C209.37 210.867 208.162 210.435 206.61 210.435H204.666V220.227H206.61ZM227.19 206.931V223.779H223.086V206.931H227.19ZM245.236 223.779H241.132L234.268 213.387V223.779H230.164V206.931H234.268L241.132 217.371V206.931H245.236V223.779ZM254.523 206.931C256.299 206.931 257.851 207.283 259.179 207.987C260.507 208.691 261.531 209.683 262.251 210.963C262.987 212.227 263.355 213.691 263.355 215.355C263.355 217.003 262.987 218.467 262.251 219.747C261.531 221.027 260.499 222.019 259.155 222.723C257.827 223.427 256.283 223.779 254.523 223.779H248.211V206.931H254.523ZM254.259 220.227C255.811 220.227 257.019 219.803 257.883 218.955C258.747 218.107 259.179 216.907 259.179 215.355C259.179 213.803 258.747 212.595 257.883 211.731C257.019 210.867 255.811 210.435 254.259 210.435H252.315V220.227H254.259ZM269.68 206.931V217.011C269.68 218.019 269.928 218.795 270.424 219.339C270.92 219.883 271.648 220.155 272.608 220.155C273.568 220.155 274.304 219.883 274.816 219.339C275.328 218.795 275.584 218.019 275.584 217.011V206.931H279.688V216.987C279.688 218.491 279.368 219.763 278.728 220.803C278.088 221.843 277.224 222.627 276.136 223.155C275.064 223.683 273.864 223.947 272.536 223.947C271.208 223.947 270.016 223.691 268.96 223.179C267.92 222.651 267.096 221.867 266.488 220.827C265.88 219.771 265.576 218.491 265.576 216.987V206.931H269.68ZM288.666 223.947C287.434 223.947 286.33 223.747 285.354 223.347C284.378 222.947 283.594 222.355 283.002 221.571C282.426 220.787 282.122 219.843 282.09 218.739H286.458C286.522 219.363 286.738 219.843 287.106 220.179C287.474 220.499 287.954 220.659 288.546 220.659C289.154 220.659 289.634 220.523 289.986 220.251C290.338 219.963 290.514 219.571 290.514 219.075C290.514 218.659 290.37 218.315 290.082 218.043C289.81 217.771 289.466 217.547 289.05 217.371C288.65 217.195 288.074 216.995 287.322 216.771C286.234 216.435 285.346 216.099 284.658 215.763C283.97 215.427 283.378 214.931 282.882 214.275C282.386 213.619 282.138 212.763 282.138 211.707C282.138 210.139 282.706 208.915 283.842 208.035C284.978 207.139 286.458 206.691 288.282 206.691C290.138 206.691 291.634 207.139 292.77 208.035C293.906 208.915 294.514 210.147 294.594 211.731H290.154C290.122 211.187 289.922 210.763 289.554 210.459C289.186 210.139 288.714 209.979 288.138 209.979C287.642 209.979 287.242 210.115 286.938 210.387C286.634 210.643 286.482 211.019 286.482 211.515C286.482 212.059 286.738 212.483 287.25 212.787C287.762 213.091 288.562 213.419 289.65 213.771C290.738 214.139 291.618 214.491 292.29 214.827C292.978 215.163 293.57 215.651 294.066 216.291C294.562 216.931 294.81 217.755 294.81 218.763C294.81 219.723 294.562 220.595 294.066 221.379C293.586 222.163 292.882 222.787 291.954 223.251C291.026 223.715 289.93 223.947 288.666 223.947ZM309.456 206.931V210.219H304.992V223.779H300.888V210.219H296.424V206.931H309.456ZM320.107 223.779L316.603 217.419H315.619V223.779H311.515V206.931H318.403C319.731 206.931 320.859 207.163 321.787 207.627C322.731 208.091 323.435 208.731 323.899 209.547C324.363 210.347 324.595 211.243 324.595 212.235C324.595 213.355 324.275 214.355 323.635 215.235C323.011 216.115 322.083 216.739 320.851 217.107L324.739 223.779H320.107ZM315.619 214.515H318.163C318.915 214.515 319.475 214.331 319.843 213.963C320.227 213.595 320.419 213.075 320.419 212.403C320.419 211.763 320.227 211.259 319.843 210.891C319.475 210.523 318.915 210.339 318.163 210.339H315.619V214.515ZM341.62 206.931L335.788 218.211V223.779H331.684V218.211L325.852 206.931H330.508L333.772 213.987L337.012 206.931H341.62Z" fill="#2B337C"/>
</svg>
