<svg width="55" height="62" viewBox="0 0 55 62" fill="none" xmlns="http://www.w3.org/2000/svg">
<path d="M0.0976562 59.9692C0.0976562 60.9689 0.908104 61.7793 1.90777 61.7793H9.14822C10.1479 61.7793 10.9583 60.9689 10.9583 59.9692V51.522C10.9583 50.5224 10.1479 49.7119 9.14822 49.7119H1.90777C0.908104 49.7119 0.0976562 50.5224 0.0976562 51.522V59.9692ZM3.71788 53.3321H7.3381V58.1591H3.71788V53.3321Z" fill="#1F4877"/>
<path d="M25.4388 59.9692V42.5728C25.4388 41.5731 24.6283 40.7627 23.6287 40.7627H16.3882C15.3886 40.7627 14.5781 41.5731 14.5781 42.5728V59.9692C14.5781 60.9688 15.3886 61.7793 16.3882 61.7793H23.6287C24.6283 61.7793 25.4388 60.9688 25.4388 59.9692ZM21.8186 58.159H18.1983V44.3829H21.8186V58.159Z" fill="#1F4877"/>
<path d="M39.9192 59.9693V29.1548C39.9192 28.1552 39.1088 27.3447 38.1091 27.3447H30.8687C29.869 27.3447 29.0586 28.1552 29.0586 29.1548V59.9693C29.0586 60.969 29.869 61.7794 30.8687 61.7794H38.1091C39.1088 61.7794 39.9192 60.969 39.9192 59.9693ZM36.299 58.1592H32.6788V30.9649H36.299V58.1592Z" fill="#1F4877"/>
<path d="M54.3997 59.9693V15.8072C54.3997 14.8075 53.5893 13.9971 52.5896 13.9971H45.3492C44.3495 13.9971 43.5391 14.8075 43.5391 15.8072V59.9693C43.5391 60.969 44.3495 61.7794 45.3492 61.7794H52.5896C53.5893 61.7794 54.3997 60.969 54.3997 59.9693ZM50.7795 58.1592H47.1593V17.6173H50.7795V58.1592Z" fill="#1F4877"/>
<path d="M54.1112 0.307219C53.2842 -0.254637 52.1584 -0.0397174 51.5967 0.787259L47.5407 6.75662H41.3565C40.683 6.75662 40.0651 7.13059 39.7528 7.7272L33.2734 20.1042H27.2492C26.5884 20.1042 25.9801 20.4643 25.6622 21.0437L18.8166 33.5223H12.7684C12.1724 33.5223 11.6146 33.8156 11.277 34.3067L5.66204 42.4714H1.90776C0.9081 42.4714 0.0976562 43.2819 0.0976562 44.2815C0.0976562 45.2812 0.9081 46.0916 1.90776 46.0916H6.61403C7.20992 46.0916 7.76779 45.7983 8.10544 45.3073L13.7204 37.1425H19.8881C20.5489 37.1425 21.1573 36.7824 21.4751 36.203L28.3208 23.7244H34.369C35.0425 23.7244 35.6603 23.3505 35.9726 22.7538L42.4521 10.3768H48.4993C49.0989 10.3768 49.6595 10.08 49.9964 9.58401L54.5911 2.82182C55.153 1.99484 54.938 0.869076 54.1112 0.307219Z" fill="#1F4877"/>
</svg>
