<svg width="374" height="323" viewBox="0 0 374 323" fill="none" xmlns="http://www.w3.org/2000/svg">
<mask id="path-1-inside-1_203_1245" fill="white">
<path d="M10 28.7928C10 18.4138 18.4138 10 28.7929 10H344.694C355.073 10 363.487 18.4138 363.487 28.7929V294.196C363.487 304.575 355.073 312.989 344.694 312.989H28.7928C18.4138 312.989 10 304.575 10 294.196V28.7928Z"/>
</mask>
<path d="M10 28.7928C10 18.4138 18.4138 10 28.7929 10H344.694C355.073 10 363.487 18.4138 363.487 28.7929V294.196C363.487 304.575 355.073 312.989 344.694 312.989H28.7928C18.4138 312.989 10 304.575 10 294.196V28.7928Z" fill="white"/>
<path d="M10 28.7929C10 12.891 22.891 0 38.7929 0H334.694C350.596 0 363.487 12.891 363.487 28.7929C363.487 23.9367 355.073 20 344.694 20H28.7929C18.4138 20 10 23.9367 10 28.7929ZM363.487 312.989H10H363.487ZM10 312.989V10V312.989ZM363.487 10V312.989V10Z" fill="#1F4877" mask="url(#path-1-inside-1_203_1245)"/>
<path d="M214.624 149.232V117.404H205.868V99H168.136V117.404H159.38V149.232H156.109V155.72C156.109 158.513 158.382 160.785 161.175 160.785H212.829C215.622 160.785 217.895 158.513 217.895 155.72V149.232H214.624ZM163 121.024H168.136V142.443H171.756V102.62H202.248V142.443H205.868V121.024H211.004V149.232H190.139V150.469H183.864V149.232H163V121.024ZM214.274 155.72C214.274 156.517 213.626 157.165 212.829 157.165H161.175C160.378 157.165 159.73 156.517 159.73 155.72V152.852H180.244V154.089H193.76V152.852H214.274V155.72Z" fill="#1F4877"/>
<path d="M177.832 108.171H196.174V111.791H177.832V108.171Z" fill="#1F4877"/>
<path d="M177.832 115.653H196.174V119.274H177.832V115.653Z" fill="#1F4877"/>
<path d="M177.832 123.135H196.174V126.755H177.832V123.135Z" fill="#1F4877"/>
<path d="M177.832 130.616H196.174V134.236H177.832V130.616Z" fill="#1F4877"/>
<path d="M98.7715 233.953C97.5395 233.953 96.4355 233.753 95.4595 233.353C94.4835 232.953 93.6995 232.361 93.1075 231.577C92.5315 230.793 92.2275 229.849 92.1955 228.745H96.5635C96.6275 229.369 96.8435 229.849 97.2115 230.185C97.5795 230.505 98.0595 230.665 98.6515 230.665C99.2595 230.665 99.7395 230.529 100.092 230.257C100.444 229.969 100.62 229.577 100.62 229.081C100.62 228.665 100.476 228.321 100.188 228.049C99.9155 227.777 99.5715 227.553 99.1555 227.377C98.7555 227.201 98.1795 227.001 97.4275 226.777C96.3395 226.441 95.4515 226.105 94.7635 225.769C94.0755 225.433 93.4835 224.937 92.9875 224.281C92.4915 223.625 92.2435 222.769 92.2435 221.713C92.2435 220.145 92.8115 218.921 93.9475 218.041C95.0835 217.145 96.5635 216.697 98.3875 216.697C100.244 216.697 101.74 217.145 102.876 218.041C104.012 218.921 104.62 220.153 104.7 221.737H100.26C100.228 221.193 100.028 220.769 99.6595 220.465C99.2915 220.145 98.8195 219.985 98.2435 219.985C97.7475 219.985 97.3475 220.121 97.0435 220.393C96.7395 220.649 96.5875 221.025 96.5875 221.521C96.5875 222.065 96.8435 222.489 97.3555 222.793C97.8675 223.097 98.6675 223.425 99.7555 223.777C100.844 224.145 101.724 224.497 102.396 224.833C103.084 225.169 103.676 225.657 104.172 226.297C104.668 226.937 104.916 227.761 104.916 228.769C104.916 229.729 104.668 230.601 104.172 231.385C103.692 232.169 102.988 232.793 102.06 233.257C101.132 233.721 100.036 233.953 98.7715 233.953ZM119.561 216.937V220.225H115.097V233.785H110.993V220.225H106.529V216.937H119.561ZM125.725 220.225V223.633H131.221V226.801H125.725V230.497H131.941V233.785H121.621V216.937H131.941V220.225H125.725ZM138.709 220.225V223.633H144.205V226.801H138.709V230.497H144.925V233.785H134.605V216.937H144.925V220.225H138.709ZM151.694 230.617H157.07V233.785H147.59V216.937H151.694V230.617ZM168.217 216.937V233.785H164.113V216.937H168.217ZM186.263 233.785H182.159L175.295 223.393V233.785H171.191V216.937H175.295L182.159 227.377V216.937H186.263V233.785ZM195.55 216.937C197.326 216.937 198.878 217.289 200.206 217.993C201.534 218.697 202.558 219.689 203.278 220.969C204.014 222.233 204.382 223.697 204.382 225.361C204.382 227.009 204.014 228.473 203.278 229.753C202.558 231.033 201.526 232.025 200.182 232.729C198.854 233.433 197.31 233.785 195.55 233.785H189.238V216.937H195.55ZM195.286 230.233C196.838 230.233 198.046 229.809 198.91 228.961C199.774 228.113 200.206 226.913 200.206 225.361C200.206 223.809 199.774 222.601 198.91 221.737C198.046 220.873 196.838 220.441 195.286 220.441H193.342V230.233H195.286ZM210.708 216.937V227.017C210.708 228.025 210.956 228.801 211.452 229.345C211.948 229.889 212.676 230.161 213.636 230.161C214.596 230.161 215.332 229.889 215.844 229.345C216.356 228.801 216.612 228.025 216.612 227.017V216.937H220.716V226.993C220.716 228.497 220.396 229.769 219.756 230.809C219.116 231.849 218.252 232.633 217.164 233.161C216.092 233.689 214.892 233.953 213.564 233.953C212.236 233.953 211.044 233.697 209.988 233.185C208.948 232.657 208.124 231.873 207.516 230.833C206.908 229.777 206.604 228.497 206.604 226.993V216.937H210.708ZM229.693 233.953C228.461 233.953 227.357 233.753 226.381 233.353C225.405 232.953 224.621 232.361 224.029 231.577C223.453 230.793 223.149 229.849 223.117 228.745H227.485C227.549 229.369 227.765 229.849 228.133 230.185C228.501 230.505 228.981 230.665 229.573 230.665C230.181 230.665 230.661 230.529 231.013 230.257C231.365 229.969 231.541 229.577 231.541 229.081C231.541 228.665 231.397 228.321 231.109 228.049C230.837 227.777 230.493 227.553 230.077 227.377C229.677 227.201 229.101 227.001 228.349 226.777C227.261 226.441 226.373 226.105 225.685 225.769C224.997 225.433 224.405 224.937 223.909 224.281C223.413 223.625 223.165 222.769 223.165 221.713C223.165 220.145 223.733 218.921 224.869 218.041C226.005 217.145 227.485 216.697 229.309 216.697C231.165 216.697 232.661 217.145 233.797 218.041C234.933 218.921 235.541 220.153 235.621 221.737H231.181C231.149 221.193 230.949 220.769 230.581 220.465C230.213 220.145 229.741 219.985 229.165 219.985C228.669 219.985 228.269 220.121 227.965 220.393C227.661 220.649 227.509 221.025 227.509 221.521C227.509 222.065 227.765 222.489 228.277 222.793C228.789 223.097 229.589 223.425 230.677 223.777C231.765 224.145 232.645 224.497 233.317 224.833C234.005 225.169 234.597 225.657 235.093 226.297C235.589 226.937 235.837 227.761 235.837 228.769C235.837 229.729 235.589 230.601 235.093 231.385C234.613 232.169 233.909 232.793 232.981 233.257C232.053 233.721 230.957 233.953 229.693 233.953ZM250.483 216.937V220.225H246.019V233.785H241.915V220.225H237.451V216.937H250.483ZM261.135 233.785L257.631 227.425H256.647V233.785H252.543V216.937H259.431C260.759 216.937 261.887 217.169 262.815 217.633C263.759 218.097 264.463 218.737 264.927 219.553C265.391 220.353 265.623 221.249 265.623 222.241C265.623 223.361 265.303 224.361 264.663 225.241C264.039 226.121 263.111 226.745 261.879 227.113L265.767 233.785H261.135ZM256.647 224.521H259.191C259.943 224.521 260.503 224.337 260.871 223.969C261.255 223.601 261.447 223.081 261.447 222.409C261.447 221.769 261.255 221.265 260.871 220.897C260.503 220.529 259.943 220.345 259.191 220.345H256.647V224.521ZM282.647 216.937L276.815 228.217V233.785H272.711V228.217L266.879 216.937H271.535L274.799 223.993L278.039 216.937H282.647Z" fill="#2B337C"/>
</svg>
