<svg width="355" height="303" viewBox="0 0 355 303" fill="none" xmlns="http://www.w3.org/2000/svg">
<mask id="path-1-inside-1_203_1223" fill="white">
<path d="M0.566406 18.7928C0.566406 8.41381 8.98026 0 19.3593 0H335.261C345.64 0 354.053 8.41385 354.053 18.7929V284.196C354.053 294.575 345.639 302.989 335.26 302.989H19.3592C8.98022 302.989 0.566406 294.575 0.566406 284.196V18.7928Z"/>
</mask>
<path d="M0.566406 18.7928C0.566406 8.41381 8.98026 0 19.3593 0H335.261C345.64 0 354.053 8.41385 354.053 18.7929V284.196C354.053 294.575 345.639 302.989 335.26 302.989H19.3592C8.98022 302.989 0.566406 294.575 0.566406 284.196V18.7928Z" fill="white"/>
<path d="M0.566406 18.7929C0.566406 2.891 13.4574 -10 29.3593 -10H325.26C341.162 -10 354.053 2.891 354.053 18.7929C354.053 13.9367 345.639 10 335.26 10H19.3593C8.98025 10 0.566406 13.9367 0.566406 18.7929ZM354.053 302.989H0.566406H354.053ZM0.566406 302.989V0V302.989ZM354.053 0V302.989V0Z" fill="#1F4877" mask="url(#path-1-inside-1_203_1223)"/>
<path d="M214.395 128.795V112.99H210.023C209.48 111.165 208.751 109.403 207.843 107.727L210.934 104.636L199.759 93.4606L196.667 96.552C194.992 95.644 193.23 94.914 191.404 94.3712V90H175.6V94.3712C173.774 94.914 172.012 95.6439 170.337 96.552L167.245 93.4606L156.07 104.636L159.161 107.727C158.253 109.403 157.523 111.165 156.981 112.99H152.609V128.795H156.981C157.523 130.621 158.253 132.382 159.161 134.058L156.07 137.149L167.245 148.325L170.337 145.233C172.012 146.141 173.774 146.871 175.6 147.414V151.785H191.404V147.414C193.23 146.871 194.992 146.141 196.667 145.233L199.759 148.325L210.934 137.149L207.843 134.058C208.751 132.382 209.481 130.621 210.023 128.795H214.395ZM207.212 125.174L206.877 126.56C206.293 128.981 205.337 131.287 204.038 133.413L203.294 134.629L205.814 137.149L199.759 143.205L197.239 140.685L196.023 141.428C193.896 142.728 191.59 143.683 189.169 144.268L187.784 144.602V148.165H179.22V144.603L177.835 144.268C175.414 143.683 173.108 142.728 170.982 141.428L169.765 140.685L167.245 143.205L161.19 137.149L163.71 134.629L162.967 133.413C161.667 131.287 160.712 128.981 160.127 126.56L159.792 125.175H156.23V116.611H159.792L160.127 115.225C160.711 112.805 161.667 110.499 162.967 108.372L163.71 107.156L161.19 104.636L167.245 98.5802L169.765 101.1L170.981 100.357C173.108 99.0573 175.414 98.1018 177.835 97.5172L179.22 97.1826V93.6202H187.784V97.1828L189.169 97.5173C191.59 98.1019 193.896 99.0574 196.023 100.357L197.239 101.1L199.759 98.5803L205.814 104.636L203.294 107.156L204.038 108.372C205.337 110.499 206.293 112.805 206.877 115.226L207.212 116.611H210.774V125.175L207.212 125.174Z" fill="#1F4877"/>
<path d="M183.501 99.7744C171.856 99.7744 162.383 109.248 162.383 120.892C162.383 132.537 171.856 142.01 183.501 142.01C195.145 142.01 204.619 132.537 204.619 120.892C204.619 109.248 195.145 99.7744 183.501 99.7744ZM183.501 138.39C173.853 138.39 166.003 130.541 166.003 120.892C166.003 111.244 173.853 103.395 183.501 103.395C193.149 103.395 200.999 111.244 200.999 120.892C200.999 130.541 193.149 138.39 183.501 138.39Z" fill="#1F4877"/>
<path d="M189.516 118.279L192.788 121.551L189.516 124.824L192.075 127.384L197.908 121.551L192.075 115.719L189.516 118.279Z" fill="#1F4877"/>
<path d="M174.926 115.719L169.094 121.551L174.926 127.384L177.486 124.824L174.214 121.551L177.486 118.279L174.926 115.719Z" fill="#1F4877"/>
<path d="M179.672 132.559L183.903 108.604L187.469 109.234L183.238 133.189L179.672 132.559Z" fill="#1F4877"/>
<path d="M52.4369 229.809H46.1489L45.1409 232.785H40.8449L46.9409 215.937H51.6929L57.7889 232.785H53.4449L52.4369 229.809ZM51.3809 226.641L49.2929 220.473L47.2289 226.641H51.3809ZM70.8282 221.265C70.5243 220.705 70.0843 220.281 69.5083 219.993C68.9483 219.689 68.2843 219.537 67.5163 219.537C66.1883 219.537 65.1243 219.977 64.3242 220.857C63.5243 221.721 63.1243 222.881 63.1243 224.337C63.1243 225.889 63.5403 227.105 64.3723 227.985C65.2203 228.849 66.3803 229.281 67.8523 229.281C68.8603 229.281 69.7083 229.025 70.3963 228.513C71.1003 228.001 71.6123 227.265 71.9323 226.305H66.7243V223.281H75.6523V227.097C75.3483 228.121 74.8283 229.073 74.0923 229.953C73.3723 230.833 72.4523 231.545 71.3323 232.089C70.2123 232.633 68.9483 232.905 67.5403 232.905C65.8763 232.905 64.3883 232.545 63.0763 231.825C61.7803 231.089 60.7643 230.073 60.0283 228.777C59.3083 227.481 58.9482 226.001 58.9482 224.337C58.9482 222.673 59.3083 221.193 60.0283 219.897C60.7643 218.585 61.7803 217.569 63.0763 216.849C64.3723 216.113 65.8523 215.745 67.5163 215.745C69.5323 215.745 71.2283 216.233 72.6043 217.209C73.9963 218.185 74.9163 219.537 75.3643 221.265H70.8282ZM89.1095 221.265C88.8055 220.705 88.3655 220.281 87.7895 219.993C87.2295 219.689 86.5655 219.537 85.7975 219.537C84.4695 219.537 83.4055 219.977 82.6055 220.857C81.8055 221.721 81.4055 222.881 81.4055 224.337C81.4055 225.889 81.8215 227.105 82.6535 227.985C83.5015 228.849 84.6615 229.281 86.1335 229.281C87.1415 229.281 87.9895 229.025 88.6775 228.513C89.3815 228.001 89.8935 227.265 90.2135 226.305H85.0055V223.281H93.9335V227.097C93.6295 228.121 93.1095 229.073 92.3735 229.953C91.6535 230.833 90.7335 231.545 89.6135 232.089C88.4935 232.633 87.2295 232.905 85.8215 232.905C84.1575 232.905 82.6695 232.545 81.3575 231.825C80.0615 231.089 79.0455 230.073 78.3095 228.777C77.5895 227.481 77.2295 226.001 77.2295 224.337C77.2295 222.673 77.5895 221.193 78.3095 219.897C79.0455 218.585 80.0615 217.569 81.3575 216.849C82.6535 216.113 84.1335 215.745 85.7975 215.745C87.8135 215.745 89.5095 216.233 90.8855 217.209C92.2775 218.185 93.1975 219.537 93.6455 221.265H89.1095ZM104.799 232.785L101.295 226.425H100.311V232.785H96.2068V215.937H103.095C104.423 215.937 105.551 216.169 106.479 216.633C107.423 217.097 108.127 217.737 108.591 218.553C109.055 219.353 109.287 220.249 109.287 221.241C109.287 222.361 108.967 223.361 108.327 224.241C107.703 225.121 106.775 225.745 105.543 226.113L109.431 232.785H104.799ZM100.311 223.521H102.855C103.607 223.521 104.167 223.337 104.535 222.969C104.919 222.601 105.111 222.081 105.111 221.409C105.111 220.769 104.919 220.265 104.535 219.897C104.167 219.529 103.607 219.345 102.855 219.345H100.311V223.521ZM115.967 219.225V222.633H121.463V225.801H115.967V229.497H122.183V232.785H111.863V215.937H122.183V219.225H115.967ZM136.031 221.265C135.727 220.705 135.287 220.281 134.711 219.993C134.151 219.689 133.487 219.537 132.719 219.537C131.391 219.537 130.327 219.977 129.527 220.857C128.727 221.721 128.327 222.881 128.327 224.337C128.327 225.889 128.743 227.105 129.575 227.985C130.423 228.849 131.583 229.281 133.055 229.281C134.063 229.281 134.911 229.025 135.599 228.513C136.303 228.001 136.815 227.265 137.135 226.305H131.927V223.281H140.855V227.097C140.551 228.121 140.031 229.073 139.295 229.953C138.575 230.833 137.655 231.545 136.535 232.089C135.415 232.633 134.151 232.905 132.743 232.905C131.079 232.905 129.591 232.545 128.279 231.825C126.983 231.089 125.967 230.073 125.231 228.777C124.511 227.481 124.151 226.001 124.151 224.337C124.151 222.673 124.511 221.193 125.231 219.897C125.967 218.585 126.983 217.569 128.279 216.849C129.575 216.113 131.055 215.745 132.719 215.745C134.735 215.745 136.431 216.233 137.807 217.209C139.199 218.185 140.119 219.537 140.567 221.265H136.031ZM153.617 229.809H147.329L146.321 232.785H142.025L148.121 215.937H152.873L158.969 232.785H154.625L153.617 229.809ZM152.561 226.641L150.473 220.473L148.409 226.641H152.561ZM172.944 215.937V219.225H168.48V232.785H164.376V219.225H159.912V215.937H172.944ZM179.108 219.225V222.633H184.604V225.801H179.108V229.497H185.324V232.785H175.004V215.937H185.324V219.225H179.108ZM194.084 232.953C192.852 232.953 191.748 232.753 190.772 232.353C189.796 231.953 189.012 231.361 188.42 230.577C187.844 229.793 187.54 228.849 187.508 227.745H191.876C191.94 228.369 192.156 228.849 192.524 229.185C192.892 229.505 193.372 229.665 193.964 229.665C194.572 229.665 195.052 229.529 195.404 229.257C195.756 228.969 195.932 228.577 195.932 228.081C195.932 227.665 195.788 227.321 195.5 227.049C195.228 226.777 194.884 226.553 194.468 226.377C194.068 226.201 193.492 226.001 192.74 225.777C191.652 225.441 190.764 225.105 190.076 224.769C189.388 224.433 188.796 223.937 188.3 223.281C187.804 222.625 187.556 221.769 187.556 220.713C187.556 219.145 188.124 217.921 189.26 217.041C190.396 216.145 191.876 215.697 193.7 215.697C195.556 215.697 197.052 216.145 198.188 217.041C199.324 217.921 199.932 219.153 200.012 220.737H195.572C195.54 220.193 195.34 219.769 194.972 219.465C194.604 219.145 194.132 218.985 193.556 218.985C193.06 218.985 192.66 219.121 192.356 219.393C192.052 219.649 191.9 220.025 191.9 220.521C191.9 221.065 192.156 221.489 192.668 221.793C193.18 222.097 193.98 222.425 195.068 222.777C196.156 223.145 197.036 223.497 197.708 223.833C198.396 224.169 198.988 224.657 199.484 225.297C199.98 225.937 200.228 226.761 200.228 227.769C200.228 228.729 199.98 229.601 199.484 230.385C199.004 231.169 198.3 231.793 197.372 232.257C196.444 232.721 195.348 232.953 194.084 232.953ZM211.944 215.937V232.785H207.84V215.937H211.944ZM229.99 232.785H225.886L219.022 222.393V232.785H214.918V215.937H219.022L225.886 226.377V215.937H229.99V232.785ZM239.277 215.937C241.053 215.937 242.605 216.289 243.933 216.993C245.261 217.697 246.285 218.689 247.005 219.969C247.741 221.233 248.109 222.697 248.109 224.361C248.109 226.009 247.741 227.473 247.005 228.753C246.285 230.033 245.253 231.025 243.909 231.729C242.581 232.433 241.037 232.785 239.277 232.785H232.965V215.937H239.277ZM239.013 229.233C240.565 229.233 241.773 228.809 242.637 227.961C243.501 227.113 243.933 225.913 243.933 224.361C243.933 222.809 243.501 221.601 242.637 220.737C241.773 219.873 240.565 219.441 239.013 219.441H237.069V229.233H239.013ZM254.434 215.937V226.017C254.434 227.025 254.682 227.801 255.178 228.345C255.674 228.889 256.402 229.161 257.362 229.161C258.322 229.161 259.058 228.889 259.57 228.345C260.082 227.801 260.338 227.025 260.338 226.017V215.937H264.442V225.993C264.442 227.497 264.122 228.769 263.482 229.809C262.842 230.849 261.978 231.633 260.89 232.161C259.818 232.689 258.618 232.953 257.29 232.953C255.962 232.953 254.77 232.697 253.714 232.185C252.674 231.657 251.85 230.873 251.242 229.833C250.634 228.777 250.33 227.497 250.33 225.993V215.937H254.434ZM273.42 232.953C272.188 232.953 271.084 232.753 270.108 232.353C269.132 231.953 268.348 231.361 267.756 230.577C267.18 229.793 266.876 228.849 266.844 227.745H271.212C271.276 228.369 271.492 228.849 271.86 229.185C272.228 229.505 272.708 229.665 273.3 229.665C273.908 229.665 274.388 229.529 274.74 229.257C275.092 228.969 275.268 228.577 275.268 228.081C275.268 227.665 275.124 227.321 274.836 227.049C274.564 226.777 274.22 226.553 273.804 226.377C273.404 226.201 272.828 226.001 272.076 225.777C270.988 225.441 270.1 225.105 269.412 224.769C268.724 224.433 268.132 223.937 267.636 223.281C267.14 222.625 266.892 221.769 266.892 220.713C266.892 219.145 267.46 217.921 268.596 217.041C269.732 216.145 271.212 215.697 273.036 215.697C274.892 215.697 276.388 216.145 277.524 217.041C278.66 217.921 279.268 219.153 279.348 220.737H274.908C274.876 220.193 274.676 219.769 274.308 219.465C273.94 219.145 273.468 218.985 272.892 218.985C272.396 218.985 271.996 219.121 271.692 219.393C271.388 219.649 271.236 220.025 271.236 220.521C271.236 221.065 271.492 221.489 272.004 221.793C272.516 222.097 273.316 222.425 274.404 222.777C275.492 223.145 276.372 223.497 277.044 223.833C277.732 224.169 278.324 224.657 278.82 225.297C279.316 225.937 279.564 226.761 279.564 227.769C279.564 228.729 279.316 229.601 278.82 230.385C278.34 231.169 277.636 231.793 276.708 232.257C275.78 232.721 274.684 232.953 273.42 232.953ZM294.21 215.937V219.225H289.746V232.785H285.642V219.225H281.178V215.937H294.21ZM304.861 232.785L301.357 226.425H300.373V232.785H296.269V215.937H303.157C304.485 215.937 305.613 216.169 306.541 216.633C307.485 217.097 308.189 217.737 308.653 218.553C309.117 219.353 309.349 220.249 309.349 221.241C309.349 222.361 309.029 223.361 308.389 224.241C307.765 225.121 306.837 225.745 305.605 226.113L309.493 232.785H304.861ZM300.373 223.521H302.917C303.669 223.521 304.229 223.337 304.597 222.969C304.981 222.601 305.173 222.081 305.173 221.409C305.173 220.769 304.981 220.265 304.597 219.897C304.229 219.529 303.669 219.345 302.917 219.345H300.373V223.521ZM326.374 215.937L320.542 227.217V232.785H316.438V227.217L310.606 215.937H315.262L318.526 222.993L321.766 215.937H326.374Z" fill="#2B337C"/>
</svg>
