<svg width="375" height="323" viewBox="0 0 375 323" fill="none" xmlns="http://www.w3.org/2000/svg">
<mask id="path-1-inside-1_203_1093" fill="white">
<path d="M10.5664 28.7928C10.5664 18.4138 18.9803 10 29.3593 10H345.261C355.64 10 364.053 18.4138 364.053 28.7929V294.196C364.053 304.575 355.639 312.989 345.26 312.989H29.3592C18.9802 312.989 10.5664 304.575 10.5664 294.196V28.7928Z"/>
</mask>
<path d="M10.5664 28.7928C10.5664 18.4138 18.9803 10 29.3593 10H345.261C355.64 10 364.053 18.4138 364.053 28.7929V294.196C364.053 304.575 355.639 312.989 345.26 312.989H29.3592C18.9802 312.989 10.5664 304.575 10.5664 294.196V28.7928Z" fill="white"/>
<path d="M10.5664 28.7929C10.5664 12.891 23.4574 0 39.3593 0H335.26C351.162 0 364.053 12.891 364.053 28.7929C364.053 23.9367 355.639 20 345.26 20H29.3593C18.9803 20 10.5664 23.9367 10.5664 28.7929ZM364.053 312.989H10.5664H364.053ZM10.5664 312.989V10V312.989ZM364.053 10V312.989V10Z" fill="#1F4877" mask="url(#path-1-inside-1_203_1093)"/>
<path d="M156.598 160.216C156.598 161.216 157.408 162.026 158.408 162.026H165.648C166.648 162.026 167.458 161.216 167.458 160.216V151.769C167.458 150.769 166.648 149.959 165.648 149.959H158.408C157.408 149.959 156.598 150.769 156.598 151.769V160.216ZM160.218 153.579H163.838V158.406H160.218V153.579Z" fill="#1F4877"/>
<path d="M181.939 160.216V142.82C181.939 141.82 181.128 141.01 180.129 141.01H172.888C171.889 141.01 171.078 141.82 171.078 142.82V160.216C171.078 161.216 171.889 162.026 172.888 162.026H180.129C181.128 162.026 181.939 161.216 181.939 160.216ZM178.319 158.406H174.698V144.63H178.319V158.406Z" fill="#1F4877"/>
<path d="M196.419 160.216V129.402C196.419 128.402 195.609 127.592 194.609 127.592H187.369C186.369 127.592 185.559 128.402 185.559 129.402V160.216C185.559 161.216 186.369 162.027 187.369 162.027H194.609C195.609 162.027 196.419 161.216 196.419 160.216ZM192.799 158.406H189.179V131.212H192.799V158.406Z" fill="#1F4877"/>
<path d="M210.9 160.216V116.054C210.9 115.055 210.089 114.244 209.09 114.244H201.849C200.85 114.244 200.039 115.055 200.039 116.054V160.216C200.039 161.216 200.85 162.026 201.849 162.026H209.09C210.089 162.026 210.9 161.216 210.9 160.216ZM207.279 158.406H203.659V117.864H207.279V158.406Z" fill="#1F4877"/>
<path d="M210.611 100.554C209.784 99.9924 208.658 100.207 208.097 101.034L204.041 107.004H197.856C197.183 107.004 196.565 107.378 196.253 107.974L189.773 120.351H183.749C183.088 120.351 182.48 120.711 182.162 121.291L175.317 133.769H169.268C168.672 133.769 168.115 134.063 167.777 134.554L162.162 142.719H158.408C157.408 142.719 156.598 143.529 156.598 144.529C156.598 145.528 157.408 146.339 158.408 146.339H163.114C163.71 146.339 164.268 146.045 164.605 145.554L170.22 137.39H176.388C177.049 137.39 177.657 137.029 177.975 136.45L184.821 123.971H190.869C191.542 123.971 192.16 123.598 192.473 123.001L198.952 110.624H204.999C205.599 110.624 206.16 110.327 206.496 109.831L211.091 103.069C211.653 102.242 211.438 101.116 210.611 100.554Z" fill="#1F4877"/>
<path d="M71.581 228.178V231.466H64.717V235.018H69.853V238.21H64.717V245.026H60.613V228.178H71.581ZM77.842 231.466V234.874H83.338V238.042H77.842V241.738H84.058V245.026H73.738V228.178H84.058V231.466H77.842ZM95.3144 245.026L91.8104 238.666H90.8264V245.026H86.7224V228.178H93.6104C94.9384 228.178 96.0664 228.41 96.9944 228.874C97.9384 229.338 98.6424 229.978 99.1064 230.794C99.5704 231.594 99.8024 232.49 99.8024 233.482C99.8024 234.602 99.4824 235.602 98.8424 236.482C98.2184 237.362 97.2904 237.986 96.0584 238.354L99.9464 245.026H95.3144ZM90.8264 235.762H93.3704C94.1224 235.762 94.6824 235.578 95.0504 235.21C95.4344 234.842 95.6264 234.322 95.6264 233.65C95.6264 233.01 95.4344 232.506 95.0504 232.138C94.6824 231.77 94.1224 231.586 93.3704 231.586H90.8264V235.762ZM114.499 228.178V231.466H110.035V245.026H105.931V231.466H101.467V228.178H114.499ZM120.662 228.178V245.026H116.558V228.178H120.662ZM127.74 241.858H133.116V245.026H123.636V228.178H127.74V241.858ZM139.178 228.178V245.026H135.074V228.178H139.178ZM146.52 241.666H153.768V245.026H141.864V241.906L149.064 231.538H141.864V228.178H153.768V231.298L146.52 241.666ZM160.553 231.466V234.874H166.049V238.042H160.553V241.738H166.769V245.026H156.449V228.178H166.769V231.466H160.553ZM178.025 245.026L174.521 238.666H173.537V245.026H169.433V228.178H176.321C177.649 228.178 178.777 228.41 179.705 228.874C180.649 229.338 181.353 229.978 181.817 230.794C182.281 231.594 182.513 232.49 182.513 233.482C182.513 234.602 182.193 235.602 181.553 236.482C180.929 237.362 180.001 237.986 178.769 238.354L182.657 245.026H178.025ZM173.537 235.762H176.081C176.833 235.762 177.393 235.578 177.761 235.21C178.145 234.842 178.337 234.322 178.337 233.65C178.337 233.01 178.145 232.506 177.761 232.138C177.393 231.77 176.833 231.586 176.081 231.586H173.537V235.762ZM194.28 228.178V245.026H190.176V228.178H194.28ZM212.326 245.026H208.222L201.358 234.634V245.026H197.254V228.178H201.358L208.222 238.618V228.178H212.326V245.026ZM221.613 228.178C223.389 228.178 224.941 228.53 226.269 229.234C227.597 229.938 228.621 230.93 229.341 232.21C230.077 233.474 230.445 234.938 230.445 236.602C230.445 238.25 230.077 239.714 229.341 240.994C228.621 242.274 227.589 243.266 226.245 243.97C224.917 244.674 223.373 245.026 221.613 245.026H215.301V228.178H221.613ZM221.349 241.474C222.901 241.474 224.109 241.05 224.973 240.202C225.837 239.354 226.269 238.154 226.269 236.602C226.269 235.05 225.837 233.842 224.973 232.978C224.109 232.114 222.901 231.682 221.349 231.682H219.405V241.474H221.349ZM236.77 228.178V238.258C236.77 239.266 237.018 240.042 237.514 240.586C238.01 241.13 238.738 241.402 239.698 241.402C240.658 241.402 241.394 241.13 241.906 240.586C242.418 240.042 242.674 239.266 242.674 238.258V228.178H246.778V238.234C246.778 239.738 246.458 241.01 245.818 242.05C245.178 243.09 244.314 243.874 243.226 244.402C242.154 244.93 240.954 245.194 239.626 245.194C238.298 245.194 237.106 244.938 236.05 244.426C235.01 243.898 234.186 243.114 233.578 242.074C232.97 241.018 232.666 239.738 232.666 238.234V228.178H236.77ZM255.756 245.194C254.524 245.194 253.42 244.994 252.444 244.594C251.468 244.194 250.684 243.602 250.092 242.818C249.516 242.034 249.212 241.09 249.18 239.986H253.548C253.612 240.61 253.828 241.09 254.196 241.426C254.564 241.746 255.044 241.906 255.636 241.906C256.244 241.906 256.724 241.77 257.076 241.498C257.428 241.21 257.604 240.818 257.604 240.322C257.604 239.906 257.46 239.562 257.172 239.29C256.9 239.018 256.556 238.794 256.14 238.618C255.74 238.442 255.164 238.242 254.412 238.018C253.324 237.682 252.436 237.346 251.748 237.01C251.06 236.674 250.468 236.178 249.972 235.522C249.476 234.866 249.228 234.01 249.228 232.954C249.228 231.386 249.796 230.162 250.932 229.282C252.068 228.386 253.548 227.938 255.372 227.938C257.228 227.938 258.724 228.386 259.86 229.282C260.996 230.162 261.604 231.394 261.684 232.978H257.244C257.212 232.434 257.012 232.01 256.644 231.706C256.276 231.386 255.804 231.226 255.228 231.226C254.732 231.226 254.332 231.362 254.028 231.634C253.724 231.89 253.572 232.266 253.572 232.762C253.572 233.306 253.828 233.73 254.34 234.034C254.852 234.338 255.652 234.666 256.74 235.018C257.828 235.386 258.708 235.738 259.38 236.074C260.068 236.41 260.66 236.898 261.156 237.538C261.652 238.178 261.9 239.002 261.9 240.01C261.9 240.97 261.652 241.842 261.156 242.626C260.676 243.41 259.972 244.034 259.044 244.498C258.116 244.962 257.02 245.194 255.756 245.194ZM276.546 228.178V231.466H272.082V245.026H267.978V231.466H263.514V228.178H276.546ZM287.197 245.026L283.693 238.666H282.709V245.026H278.605V228.178H285.493C286.821 228.178 287.949 228.41 288.877 228.874C289.821 229.338 290.525 229.978 290.989 230.794C291.453 231.594 291.685 232.49 291.685 233.482C291.685 234.602 291.365 235.602 290.725 236.482C290.101 237.362 289.173 237.986 287.941 238.354L291.829 245.026H287.197ZM282.709 235.762H285.253C286.005 235.762 286.565 235.578 286.933 235.21C287.317 234.842 287.509 234.322 287.509 233.65C287.509 233.01 287.317 232.506 286.933 232.138C286.565 231.77 286.005 231.586 285.253 231.586H282.709V235.762ZM308.709 228.178L302.877 239.458V245.026H298.773V239.458L292.941 228.178H297.597L300.861 235.234L304.101 228.178H308.709Z" fill="#2B337C"/>
</svg>
