<svg width="354" height="303" viewBox="0 0 354 303" fill="none" xmlns="http://www.w3.org/2000/svg">
<mask id="path-1-inside-1_203_1105" fill="white">
<path d="M0 18.7928C0 8.41381 8.41385 0 18.7929 0H334.694C345.073 0 353.487 8.41385 353.487 18.7929V284.196C353.487 294.575 345.073 302.989 334.694 302.989H18.7928C8.41382 302.989 0 294.575 0 284.196V18.7928Z"/>
</mask>
<path d="M0 18.7928C0 8.41381 8.41385 0 18.7929 0H334.694C345.073 0 353.487 8.41385 353.487 18.7929V284.196C353.487 294.575 345.073 302.989 334.694 302.989H18.7928C8.41382 302.989 0 294.575 0 284.196V18.7928Z" fill="white"/>
<path d="M0 18.7929C0 2.891 12.891 -10 28.7929 -10H324.694C340.596 -10 353.487 2.891 353.487 18.7929C353.487 13.9367 345.073 10 334.694 10H18.7929C8.41385 10 0 13.9367 0 18.7929ZM353.487 302.989H0H353.487ZM0 302.989V0V302.989ZM353.487 0V302.989V0Z" fill="#1F4877" mask="url(#path-1-inside-1_203_1105)"/>
<path d="M213.543 129.036V113.232H209.172C208.629 111.406 207.899 109.644 206.991 107.969L210.082 104.877L198.907 93.7018L195.816 96.7932C194.14 95.8853 192.379 95.1552 190.553 94.6124V90.2412H174.748V94.6124C172.922 95.1552 171.161 95.8851 169.485 96.7932L166.394 93.7018L155.218 104.877L158.31 107.969C157.402 109.644 156.672 111.406 156.129 113.232H151.758V129.036H156.129C156.672 130.862 157.402 132.624 158.31 134.299L155.218 137.391L166.394 148.566L169.485 145.474C171.161 146.382 172.922 147.113 174.748 147.655V152.026H190.553V147.655C192.379 147.112 194.14 146.382 195.816 145.474L198.907 148.566L210.082 137.39L206.991 134.299C207.899 132.624 208.629 130.862 209.172 129.036H213.543ZM206.36 125.416L206.026 126.801C205.441 129.222 204.486 131.528 203.186 133.654L202.443 134.87L204.963 137.39L198.907 143.446L196.387 140.926L195.171 141.669C193.044 142.969 190.739 143.924 188.318 144.509L186.933 144.844V148.406H178.369V144.844L176.984 144.509C174.562 143.924 172.257 142.969 170.13 141.669L168.914 140.926L166.394 143.446L160.338 137.391L162.858 134.87L162.115 133.654C160.815 131.528 159.86 129.222 159.275 126.801L158.941 125.416H155.378V116.852H158.941L159.275 115.467C159.86 113.046 160.815 110.74 162.115 108.613L162.858 107.397L160.338 104.877L166.394 98.8214L168.914 101.341L170.13 100.598C172.256 99.2985 174.562 98.343 176.983 97.7584L178.369 97.4239V93.8614H186.932V97.424L188.318 97.7585C190.739 98.3432 193.044 99.2986 195.171 100.598L196.387 101.341L198.907 98.8215L204.963 104.877L202.443 107.397L203.186 108.613C204.486 110.74 205.441 113.046 206.026 115.467L206.36 116.852H209.923V125.416L206.36 125.416Z" fill="#1F4877"/>
<path d="M182.649 100.016C171.005 100.016 161.531 109.489 161.531 121.134C161.531 132.778 171.005 142.252 182.649 142.252C194.294 142.252 203.767 132.778 203.767 121.134C203.767 109.489 194.294 100.016 182.649 100.016ZM182.649 138.631C173.001 138.631 165.151 130.782 165.151 121.134C165.151 111.485 173.001 103.636 182.649 103.636C192.297 103.636 200.147 111.485 200.147 121.134C200.147 130.782 192.297 138.631 182.649 138.631Z" fill="#1F4877"/>
<path d="M188.664 118.52L191.937 121.793L188.664 125.065L191.224 127.625L197.057 121.793L191.224 115.96L188.664 118.52Z" fill="#1F4877"/>
<path d="M174.075 115.96L168.242 121.793L174.075 127.625L176.635 125.065L173.362 121.793L176.635 118.52L174.075 115.96Z" fill="#1F4877"/>
<path d="M178.82 132.8L183.052 108.846L186.618 109.476L182.386 133.43L178.82 132.8Z" fill="#1F4877"/>
<path d="M71.5498 226.578C71.5498 224.914 71.9098 223.434 72.6298 222.138C73.3498 220.826 74.3498 219.81 75.6298 219.09C76.9258 218.354 78.3898 217.986 80.0218 217.986C82.0218 217.986 83.7338 218.514 85.1578 219.57C86.5818 220.626 87.5338 222.066 88.0138 223.89H83.5018C83.1658 223.186 82.6858 222.65 82.0618 222.282C81.4538 221.914 80.7578 221.73 79.9738 221.73C78.7098 221.73 77.6858 222.17 76.9018 223.05C76.1178 223.93 75.7258 225.106 75.7258 226.578C75.7258 228.05 76.1178 229.226 76.9018 230.106C77.6858 230.986 78.7098 231.426 79.9738 231.426C80.7578 231.426 81.4538 231.242 82.0618 230.874C82.6858 230.506 83.1658 229.97 83.5018 229.266H88.0138C87.5338 231.09 86.5818 232.53 85.1578 233.586C83.7338 234.626 82.0218 235.146 80.0218 235.146C78.3898 235.146 76.9258 234.786 75.6298 234.066C74.3498 233.33 73.3498 232.314 72.6298 231.018C71.9098 229.722 71.5498 228.242 71.5498 226.578ZM94.6311 221.466V224.874H100.127V228.042H94.6311V231.738H100.847V235.026H90.5271V218.178H100.847V221.466H94.6311ZM122.591 218.178V235.026H118.487V224.922L114.719 235.026H111.407L107.615 224.898V235.026H103.511V218.178H108.359L113.087 229.842L117.767 218.178H122.591ZM129.647 221.466V224.874H135.143V228.042H129.647V231.738H135.863V235.026H125.543V218.178H135.863V221.466H129.647ZM153.599 235.026H149.495L142.631 224.634V235.026H138.527V218.178H142.631L149.495 228.618V218.178H153.599V235.026ZM168.694 218.178V221.466H164.23V235.026H160.126V221.466H155.662V218.178H168.694ZM179.944 218.178V235.026H175.84V218.178H179.944ZM197.99 235.026H193.886L187.022 224.634V235.026H182.918V218.178H187.022L193.886 228.618V218.178H197.99V235.026ZM207.277 218.178C209.053 218.178 210.605 218.53 211.933 219.234C213.261 219.938 214.285 220.93 215.005 222.21C215.741 223.474 216.109 224.938 216.109 226.602C216.109 228.25 215.741 229.714 215.005 230.994C214.285 232.274 213.253 233.266 211.909 233.97C210.581 234.674 209.037 235.026 207.277 235.026H200.965V218.178H207.277ZM207.013 231.474C208.565 231.474 209.773 231.05 210.637 230.202C211.501 229.354 211.933 228.154 211.933 226.602C211.933 225.05 211.501 223.842 210.637 222.978C209.773 222.114 208.565 221.682 207.013 221.682H205.069V231.474H207.013ZM222.434 218.178V228.258C222.434 229.266 222.682 230.042 223.178 230.586C223.674 231.13 224.402 231.402 225.362 231.402C226.322 231.402 227.058 231.13 227.57 230.586C228.082 230.042 228.338 229.266 228.338 228.258V218.178H232.442V228.234C232.442 229.738 232.122 231.01 231.482 232.05C230.842 233.09 229.978 233.874 228.89 234.402C227.818 234.93 226.618 235.194 225.29 235.194C223.962 235.194 222.77 234.938 221.714 234.426C220.674 233.898 219.85 233.114 219.242 232.074C218.634 231.018 218.33 229.738 218.33 228.234V218.178H222.434ZM241.42 235.194C240.188 235.194 239.084 234.994 238.108 234.594C237.132 234.194 236.348 233.602 235.756 232.818C235.18 232.034 234.876 231.09 234.844 229.986H239.212C239.276 230.61 239.492 231.09 239.86 231.426C240.228 231.746 240.708 231.906 241.3 231.906C241.908 231.906 242.388 231.77 242.74 231.498C243.092 231.21 243.268 230.818 243.268 230.322C243.268 229.906 243.124 229.562 242.836 229.29C242.564 229.018 242.22 228.794 241.804 228.618C241.404 228.442 240.828 228.242 240.076 228.018C238.988 227.682 238.1 227.346 237.412 227.01C236.724 226.674 236.132 226.178 235.636 225.522C235.14 224.866 234.892 224.01 234.892 222.954C234.892 221.386 235.46 220.162 236.596 219.282C237.732 218.386 239.212 217.938 241.036 217.938C242.892 217.938 244.388 218.386 245.524 219.282C246.66 220.162 247.268 221.394 247.348 222.978H242.908C242.876 222.434 242.676 222.01 242.308 221.706C241.94 221.386 241.468 221.226 240.892 221.226C240.396 221.226 239.996 221.362 239.692 221.634C239.388 221.89 239.236 222.266 239.236 222.762C239.236 223.306 239.492 223.73 240.004 224.034C240.516 224.338 241.316 224.666 242.404 225.018C243.492 225.386 244.372 225.738 245.044 226.074C245.732 226.41 246.324 226.898 246.82 227.538C247.316 228.178 247.564 229.002 247.564 230.01C247.564 230.97 247.316 231.842 246.82 232.626C246.34 233.41 245.636 234.034 244.708 234.498C243.78 234.962 242.684 235.194 241.42 235.194ZM262.21 218.178V221.466H257.746V235.026H253.642V221.466H249.178V218.178H262.21ZM272.861 235.026L269.357 228.666H268.373V235.026H264.269V218.178H271.157C272.485 218.178 273.613 218.41 274.541 218.874C275.485 219.338 276.189 219.978 276.653 220.794C277.117 221.594 277.349 222.49 277.349 223.482C277.349 224.602 277.029 225.602 276.389 226.482C275.765 227.362 274.837 227.986 273.605 228.354L277.493 235.026H272.861ZM268.373 225.762H270.917C271.669 225.762 272.229 225.578 272.597 225.21C272.981 224.842 273.173 224.322 273.173 223.65C273.173 223.01 272.981 222.506 272.597 222.138C272.229 221.77 271.669 221.586 270.917 221.586H268.373V225.762ZM294.374 218.178L288.542 229.458V235.026H284.438V229.458L278.606 218.178H283.262L286.526 225.234L289.766 218.178H294.374Z" fill="#2B337C"/>
</svg>
