<svg width="490" height="306" viewBox="0 0 490 306" fill="none" xmlns="http://www.w3.org/2000/svg">
<path d="M0 21.787C0 11.4079 8.41385 2.99414 18.7929 2.99414H471.207C481.586 2.99414 490 11.408 490 21.787V287.19C490 297.569 481.586 305.983 471.207 305.983H18.7928C8.41383 305.983 0 297.569 0 287.19V21.787Z" fill="#1F4877"/>
<path fill-rule="evenodd" clip-rule="evenodd" d="M9.92782e-07 21.7794C0.00410793 11.4038 8.41638 2.99414 18.7929 2.99414H471.207C481.586 2.99414 490 11.408 490 21.787C490 16.9308 481.586 12.9941 471.207 12.9941H18.7929C8.41385 12.9941 0 16.9308 0 21.787" fill="#D9D9D9"/>
<path d="M271.847 132.226V100.398H263.091V81.9941H225.358V100.398H216.602V132.226H213.332V138.714C213.332 141.507 215.605 143.779 218.398 143.779H270.052C272.845 143.779 275.117 141.507 275.117 138.714V132.226H271.847ZM220.223 104.019H225.358V125.437H228.979V85.6144H259.471V125.437H263.091V104.019H268.226V132.226H247.362V133.463H241.087V132.226H220.223V104.019ZM271.497 138.714C271.497 139.511 270.849 140.159 270.052 140.159H218.398C217.6 140.159 216.952 139.511 216.952 138.714V135.846H237.467V137.083H250.982V135.846H271.497V138.714Z" fill="#D9D9D9"/>
<path d="M235.055 91.165H253.397V94.7853H235.055V91.165Z" fill="#D9D9D9"/>
<path d="M235.055 98.6475H253.397V102.268H235.055V98.6475Z" fill="#D9D9D9"/>
<path d="M235.055 106.129H253.397V109.749H235.055V106.129Z" fill="#D9D9D9"/>
<path d="M235.055 113.61H253.397V117.231H235.055V113.61Z" fill="#D9D9D9"/>
<path d="M339.452 193.02L333.62 204.3V209.868H329.516V204.3L323.684 193.02H328.34L331.604 200.076L334.844 193.02H339.452Z" fill="#D9D9D9"/>
<path d="M317.94 209.868L314.436 203.508H313.452V209.868H309.348V193.02H316.236C317.564 193.02 318.692 193.252 319.62 193.716C320.564 194.18 321.268 194.82 321.732 195.636C322.196 196.436 322.428 197.332 322.428 198.324C322.428 199.444 322.108 200.444 321.468 201.324C320.844 202.204 319.916 202.828 318.684 203.196L322.572 209.868H317.94ZM313.452 200.604H315.996C316.748 200.604 317.308 200.42 317.676 200.052C318.06 199.684 318.252 199.164 318.252 198.492C318.252 197.852 318.06 197.348 317.676 196.98C317.308 196.612 316.748 196.428 315.996 196.428H313.452V200.604Z" fill="#D9D9D9"/>
<path d="M307.286 193.02V196.308H302.822V209.868H298.718V196.308H294.254V193.02H307.286Z" fill="#D9D9D9"/>
<path d="M286.498 210.035C285.266 210.035 284.162 209.835 283.186 209.435C282.21 209.035 281.426 208.443 280.834 207.659C280.258 206.875 279.954 205.931 279.922 204.827H284.29C284.354 205.451 284.57 205.931 284.938 206.267C285.306 206.587 285.786 206.747 286.378 206.747C286.986 206.747 287.466 206.611 287.818 206.339C288.17 206.051 288.346 205.659 288.346 205.163C288.346 204.747 288.202 204.403 287.914 204.131C287.642 203.859 287.298 203.635 286.882 203.459C286.482 203.283 285.906 203.083 285.154 202.859C284.066 202.523 283.178 202.187 282.49 201.851C281.802 201.515 281.21 201.019 280.714 200.363C280.218 199.707 279.97 198.851 279.97 197.795C279.97 196.227 280.538 195.003 281.674 194.123C282.81 193.227 284.29 192.779 286.114 192.779C287.97 192.779 289.466 193.227 290.602 194.123C291.738 195.003 292.346 196.235 292.426 197.819H287.986C287.954 197.275 287.754 196.851 287.386 196.547C287.018 196.227 286.546 196.067 285.97 196.067C285.474 196.067 285.074 196.203 284.77 196.475C284.466 196.731 284.314 197.107 284.314 197.603C284.314 198.147 284.57 198.571 285.082 198.875C285.594 199.179 286.394 199.507 287.482 199.859C288.57 200.227 289.45 200.579 290.122 200.915C290.81 201.251 291.402 201.739 291.898 202.379C292.394 203.019 292.642 203.843 292.642 204.851C292.642 205.811 292.394 206.683 291.898 207.467C291.418 208.251 290.714 208.875 289.786 209.339C288.858 209.803 287.762 210.035 286.498 210.035Z" fill="#D9D9D9"/>
<path d="M267.51 193.02V203.1C267.51 204.108 267.758 204.884 268.254 205.428C268.75 205.972 269.478 206.244 270.438 206.244C271.398 206.244 272.134 205.972 272.646 205.428C273.158 204.884 273.414 204.108 273.414 203.1V193.02H277.518V203.076C277.518 204.58 277.198 205.852 276.558 206.892C275.918 207.932 275.054 208.716 273.966 209.244C272.894 209.772 271.694 210.036 270.366 210.036C269.038 210.036 267.846 209.78 266.79 209.268C265.75 208.74 264.926 207.956 264.318 206.916C263.71 205.86 263.406 204.58 263.406 203.076V193.02H267.51Z" fill="#D9D9D9"/>
<path d="M252.355 193.02C254.131 193.02 255.683 193.372 257.011 194.076C258.339 194.78 259.363 195.772 260.083 197.052C260.819 198.316 261.187 199.78 261.187 201.444C261.187 203.092 260.819 204.556 260.083 205.836C259.363 207.116 258.331 208.108 256.987 208.812C255.659 209.516 254.115 209.868 252.355 209.868H246.043V193.02H252.355ZM252.091 206.316C253.643 206.316 254.851 205.892 255.715 205.044C256.579 204.196 257.011 202.996 257.011 201.444C257.011 199.892 256.579 198.684 255.715 197.82C254.851 196.956 253.643 196.524 252.091 196.524H250.147V206.316H252.091Z" fill="#D9D9D9"/>
<path d="M243.068 209.868H238.964L232.1 199.476V209.868H227.996V193.02H232.1L238.964 203.46V193.02H243.068V209.868Z" fill="#D9D9D9"/>
<path d="M225.022 193.02V209.868H220.918V193.02H225.022Z" fill="#D9D9D9"/>
<path d="M208.499 206.7H213.875V209.868H204.395V193.02H208.499V206.7Z" fill="#D9D9D9"/>
<path d="M195.514 196.308V199.716H201.01V202.884H195.514V206.58H201.73V209.868H191.41V193.02H201.73V196.308H195.514Z" fill="#D9D9D9"/>
<path d="M182.53 196.308V199.716H188.026V202.884H182.53V206.58H188.746V209.868H178.426V193.02H188.746V196.308H182.53Z" fill="#D9D9D9"/>
<path d="M176.364 193.02V196.308H171.9V209.868H167.796V196.308H163.332V193.02H176.364Z" fill="#D9D9D9"/>
<path d="M155.576 210.035C154.344 210.035 153.24 209.835 152.264 209.435C151.288 209.035 150.504 208.443 149.912 207.659C149.336 206.875 149.032 205.931 149 204.827H153.368C153.432 205.451 153.648 205.931 154.016 206.267C154.384 206.587 154.864 206.747 155.456 206.747C156.064 206.747 156.544 206.611 156.896 206.339C157.248 206.051 157.424 205.659 157.424 205.163C157.424 204.747 157.28 204.403 156.992 204.131C156.72 203.859 156.376 203.635 155.96 203.459C155.56 203.283 154.984 203.083 154.232 202.859C153.144 202.523 152.256 202.187 151.568 201.851C150.88 201.515 150.288 201.019 149.792 200.363C149.296 199.707 149.048 198.851 149.048 197.795C149.048 196.227 149.616 195.003 150.752 194.123C151.888 193.227 153.368 192.779 155.192 192.779C157.048 192.779 158.544 193.227 159.68 194.123C160.816 195.003 161.424 196.235 161.504 197.819H157.064C157.032 197.275 156.832 196.851 156.464 196.547C156.096 196.227 155.624 196.067 155.048 196.067C154.552 196.067 154.152 196.203 153.848 196.475C153.544 196.731 153.392 197.107 153.392 197.603C153.392 198.147 153.648 198.571 154.16 198.875C154.672 199.179 155.472 199.507 156.56 199.859C157.648 200.227 158.528 200.579 159.2 200.915C159.888 201.251 160.48 201.739 160.976 202.379C161.472 203.019 161.72 203.843 161.72 204.851C161.72 205.811 161.472 206.683 160.976 207.467C160.496 208.251 159.792 208.875 158.864 209.339C157.936 209.803 156.84 210.035 155.576 210.035Z" fill="#D9D9D9"/>
</svg>
