<svg width="490" height="303" viewBox="0 0 490 303" fill="none" xmlns="http://www.w3.org/2000/svg">
<mask id="path-1-inside-1_203_1802" fill="white">
<path d="M0 18.787C0 8.40797 8.41385 -0.00585938 18.7929 -0.00585938H471.207C481.586 -0.00585938 490 8.40799 490 18.787V284.201C490 294.58 481.586 302.994 471.207 302.994H18.7928C8.41383 302.994 0 294.58 0 284.201V18.787Z"/>
</mask>
<path d="M0 18.787C0 8.40797 8.41385 -0.00585938 18.7929 -0.00585938H471.207C481.586 -0.00585938 490 8.40799 490 18.787V284.201C490 294.58 481.586 302.994 471.207 302.994H18.7928C8.41383 302.994 0 294.58 0 284.201V18.787Z" fill="#E1E1E1"/>
<path d="M0 18.787C0 2.88514 12.891 -10.0059 28.7929 -10.0059H461.207C477.109 -10.0059 490 2.88514 490 18.787C490 13.9308 481.586 9.99414 471.207 9.99414H18.7929C8.41385 9.99414 0 13.9308 0 18.787ZM490 302.994H0H490ZM0 302.994V-0.00585938V302.994ZM490 -0.00585938V302.994V-0.00585938Z" fill="#1F4877" mask="url(#path-1-inside-1_203_1802)"/>
<path d="M217.098 137.969C217.098 138.969 217.908 139.779 218.908 139.779H226.148C227.148 139.779 227.958 138.969 227.958 137.969V129.522C227.958 128.522 227.148 127.712 226.148 127.712H218.908C217.908 127.712 217.098 128.522 217.098 129.522V137.969ZM220.718 131.332H224.338V136.159H220.718V131.332Z" fill="#1F4877"/>
<path d="M242.439 137.969V120.573C242.439 119.573 241.628 118.763 240.629 118.763H233.388C232.389 118.763 231.578 119.573 231.578 120.573V137.969C231.578 138.969 232.389 139.779 233.388 139.779H240.629C241.628 139.779 242.439 138.969 242.439 137.969ZM238.819 136.159H235.198V122.383H238.819V136.159Z" fill="#1F4877"/>
<path d="M256.919 137.969V107.155C256.919 106.155 256.109 105.345 255.109 105.345H247.869C246.869 105.345 246.059 106.155 246.059 107.155V137.969C246.059 138.969 246.869 139.779 247.869 139.779H255.109C256.109 139.779 256.919 138.969 256.919 137.969ZM253.299 136.159H249.679V108.965H253.299V136.159Z" fill="#1F4877"/>
<path d="M271.4 137.969V93.8072C271.4 92.8075 270.589 91.9971 269.59 91.9971H262.349C261.35 91.9971 260.539 92.8075 260.539 93.8072V137.969C260.539 138.969 261.35 139.779 262.349 139.779H269.59C270.589 139.779 271.4 138.969 271.4 137.969ZM267.779 136.159H264.159V95.6173H267.779V136.159Z" fill="#1F4877"/>
<path d="M271.111 78.3072C270.284 77.7454 269.158 77.9603 268.597 78.7873L264.541 84.7566H258.356C257.683 84.7566 257.065 85.1306 256.753 85.7272L250.273 98.1042H244.249C243.588 98.1042 242.98 98.4643 242.662 99.0437L235.817 111.522H229.768C229.172 111.522 228.615 111.816 228.277 112.307L222.662 120.471H218.908C217.908 120.471 217.098 121.282 217.098 122.282C217.098 123.281 217.908 124.092 218.908 124.092H223.614C224.21 124.092 224.768 123.798 225.105 123.307L230.72 115.142H236.888C237.549 115.142 238.157 114.782 238.475 114.203L245.321 101.724H251.369C252.042 101.724 252.66 101.35 252.973 100.754L259.452 88.3768H265.499C266.099 88.3768 266.66 88.08 266.996 87.584L271.591 80.8218C272.153 79.9948 271.938 78.8691 271.111 78.3072Z" fill="#1F4877"/>
<path d="M139.08 218.779L135.576 212.419H134.592V218.779H130.488V201.931H137.376C138.704 201.931 139.832 202.163 140.76 202.627C141.704 203.091 142.408 203.731 142.872 204.547C143.336 205.347 143.568 206.243 143.568 207.235C143.568 208.355 143.248 209.355 142.608 210.235C141.984 211.115 141.056 211.739 139.824 212.107L143.712 218.779H139.08ZM134.592 209.515H137.136C137.888 209.515 138.448 209.331 138.816 208.963C139.2 208.595 139.392 208.075 139.392 207.403C139.392 206.763 139.2 206.259 138.816 205.891C138.448 205.523 137.888 205.339 137.136 205.339H134.592V209.515ZM150.248 205.219V208.627H155.744V211.795H150.248V215.491H156.464V218.779H146.144V201.931H156.464V205.219H150.248ZM158.433 210.331C158.433 208.667 158.793 207.187 159.513 205.891C160.233 204.579 161.233 203.563 162.513 202.843C163.809 202.107 165.273 201.739 166.905 201.739C168.905 201.739 170.617 202.267 172.041 203.323C173.465 204.379 174.417 205.819 174.897 207.643H170.385C170.049 206.939 169.569 206.403 168.945 206.035C168.337 205.667 167.641 205.483 166.857 205.483C165.593 205.483 164.569 205.923 163.785 206.803C163.001 207.683 162.609 208.859 162.609 210.331C162.609 211.803 163.001 212.979 163.785 213.859C164.569 214.739 165.593 215.179 166.857 215.179C167.641 215.179 168.337 214.995 168.945 214.627C169.569 214.259 170.049 213.723 170.385 213.019H174.897C174.417 214.843 173.465 216.283 172.041 217.339C170.617 218.379 168.905 218.899 166.905 218.899C165.273 218.899 163.809 218.539 162.513 217.819C161.233 217.083 160.233 216.067 159.513 214.771C158.793 213.475 158.433 211.995 158.433 210.331ZM191.858 201.931L186.026 213.211V218.779H181.922V213.211L176.09 201.931H180.746L184.01 208.987L187.25 201.931H191.858ZM192.815 210.331C192.815 208.667 193.175 207.187 193.895 205.891C194.615 204.579 195.615 203.563 196.895 202.843C198.191 202.107 199.655 201.739 201.287 201.739C203.287 201.739 204.999 202.267 206.423 203.323C207.847 204.379 208.799 205.819 209.279 207.643H204.767C204.431 206.939 203.951 206.403 203.327 206.035C202.719 205.667 202.023 205.483 201.239 205.483C199.975 205.483 198.951 205.923 198.167 206.803C197.383 207.683 196.991 208.859 196.991 210.331C196.991 211.803 197.383 212.979 198.167 213.859C198.951 214.739 199.975 215.179 201.239 215.179C202.023 215.179 202.719 214.995 203.327 214.627C203.951 214.259 204.431 213.723 204.767 213.019H209.279C208.799 214.843 207.847 216.283 206.423 217.339C204.999 218.379 203.287 218.899 201.287 218.899C199.655 218.899 198.191 218.539 196.895 217.819C195.615 217.083 194.615 216.067 193.895 214.771C193.175 213.475 192.815 211.995 192.815 210.331ZM215.897 215.611H221.273V218.779H211.793V201.931H215.897V215.611ZM227.334 205.219V208.627H232.83V211.795H227.334V215.491H233.55V218.779H223.23V201.931H233.55V205.219H227.334ZM245.405 201.931V218.779H241.301V201.931H245.405ZM263.451 218.779H259.347L252.483 208.387V218.779H248.379V201.931H252.483L259.347 212.371V201.931H263.451V218.779ZM272.738 201.931C274.514 201.931 276.066 202.283 277.394 202.987C278.722 203.691 279.746 204.683 280.466 205.963C281.202 207.227 281.57 208.691 281.57 210.355C281.57 212.003 281.202 213.467 280.466 214.747C279.746 216.027 278.714 217.019 277.37 217.723C276.042 218.427 274.498 218.779 272.738 218.779H266.426V201.931H272.738ZM272.474 215.227C274.026 215.227 275.234 214.803 276.098 213.955C276.962 213.107 277.394 211.907 277.394 210.355C277.394 208.803 276.962 207.595 276.098 206.731C275.234 205.867 274.026 205.435 272.474 205.435H270.53V215.227H272.474ZM287.895 201.931V212.011C287.895 213.019 288.143 213.795 288.639 214.339C289.135 214.883 289.863 215.155 290.823 215.155C291.783 215.155 292.519 214.883 293.031 214.339C293.543 213.795 293.799 213.019 293.799 212.011V201.931H297.903V211.987C297.903 213.491 297.583 214.763 296.943 215.803C296.303 216.843 295.439 217.627 294.351 218.155C293.279 218.683 292.079 218.947 290.751 218.947C289.423 218.947 288.231 218.691 287.175 218.179C286.135 217.651 285.311 216.867 284.703 215.827C284.095 214.771 283.791 213.491 283.791 211.987V201.931H287.895ZM306.881 218.947C305.649 218.947 304.545 218.747 303.569 218.347C302.593 217.947 301.809 217.355 301.217 216.571C300.641 215.787 300.337 214.843 300.305 213.739H304.673C304.737 214.363 304.953 214.843 305.321 215.179C305.689 215.499 306.169 215.659 306.761 215.659C307.369 215.659 307.849 215.523 308.201 215.251C308.553 214.963 308.729 214.571 308.729 214.075C308.729 213.659 308.585 213.315 308.297 213.043C308.025 212.771 307.681 212.547 307.265 212.371C306.865 212.195 306.289 211.995 305.537 211.771C304.449 211.435 303.561 211.099 302.873 210.763C302.185 210.427 301.593 209.931 301.097 209.275C300.601 208.619 300.353 207.763 300.353 206.707C300.353 205.139 300.921 203.915 302.057 203.035C303.193 202.139 304.673 201.691 306.497 201.691C308.353 201.691 309.849 202.139 310.985 203.035C312.121 203.915 312.729 205.147 312.809 206.731H308.369C308.337 206.187 308.137 205.763 307.769 205.459C307.401 205.139 306.929 204.979 306.353 204.979C305.857 204.979 305.457 205.115 305.153 205.387C304.849 205.643 304.697 206.019 304.697 206.515C304.697 207.059 304.953 207.483 305.465 207.787C305.977 208.091 306.777 208.419 307.865 208.771C308.953 209.139 309.833 209.491 310.505 209.827C311.193 210.163 311.785 210.651 312.281 211.291C312.777 211.931 313.025 212.755 313.025 213.763C313.025 214.723 312.777 215.595 312.281 216.379C311.801 217.163 311.097 217.787 310.169 218.251C309.241 218.715 308.145 218.947 306.881 218.947ZM327.671 201.931V205.219H323.207V218.779H319.103V205.219H314.639V201.931H327.671ZM338.322 218.779L334.818 212.419H333.834V218.779H329.73V201.931H336.618C337.946 201.931 339.074 202.163 340.002 202.627C340.946 203.091 341.65 203.731 342.114 204.547C342.578 205.347 342.81 206.243 342.81 207.235C342.81 208.355 342.49 209.355 341.85 210.235C341.226 211.115 340.298 211.739 339.066 212.107L342.954 218.779H338.322ZM333.834 209.515H336.378C337.13 209.515 337.69 209.331 338.058 208.963C338.442 208.595 338.634 208.075 338.634 207.403C338.634 206.763 338.442 206.259 338.058 205.891C337.69 205.523 337.13 205.339 336.378 205.339H333.834V209.515ZM359.834 201.931L354.002 213.211V218.779H349.898V213.211L344.066 201.931H348.722L351.986 208.987L355.226 201.931H359.834Z" fill="#2B337C"/>
</svg>
