<svg width="490" height="313" viewBox="0 0 490 313" fill="none" xmlns="http://www.w3.org/2000/svg">
<path d="M275.895 128.789V112.985H271.523C270.98 111.159 270.251 109.397 269.343 107.722L272.434 104.63L261.259 93.4547L258.167 96.5461C256.492 95.6382 254.73 94.9081 252.904 94.3653V89.9941H237.1V94.3653C235.274 94.9081 233.512 95.6381 231.837 96.5461L228.745 93.4547L217.57 104.63L220.661 107.722C219.753 109.397 219.023 111.159 218.481 112.985H214.109V128.789H218.481C219.023 130.615 219.753 132.376 220.661 134.052L217.57 137.143L228.745 148.319L231.837 145.227C233.512 146.135 235.274 146.865 237.1 147.408V151.779H252.904V147.408C254.73 146.865 256.492 146.135 258.167 145.227L261.259 148.319L272.434 137.143L269.343 134.052C270.251 132.376 270.981 130.615 271.523 128.789H275.895ZM268.712 125.169L268.377 126.554C267.793 128.975 266.837 131.281 265.538 133.407L264.794 134.623L267.314 137.143L261.259 143.199L258.739 140.679L257.523 141.422C255.396 142.722 253.09 143.677 250.669 144.262L249.284 144.597V148.159H240.72V144.597L239.335 144.262C236.914 143.677 234.608 142.722 232.482 141.422L231.265 140.679L228.745 143.199L222.69 137.143L225.21 134.623L224.467 133.407C223.167 131.281 222.212 128.975 221.627 126.554L221.292 125.169H217.73V116.605H221.292L221.627 115.22C222.211 112.799 223.167 110.493 224.467 108.366L225.21 107.15L222.69 104.63L228.745 98.5743L231.265 101.094L232.481 100.351C234.608 99.0515 236.914 98.096 239.335 97.5113L240.72 97.1768V93.6144H249.284V97.1769L250.669 97.5114C253.09 98.0961 255.396 99.0516 257.523 100.351L258.739 101.094L261.259 98.5744L267.314 104.63L264.794 107.15L265.538 108.366C266.837 110.493 267.793 112.799 268.377 115.22L268.712 116.605H272.274V125.169L268.712 125.169Z" fill="#1F4877"/>
<path d="M245.001 99.7686C233.356 99.7686 223.883 109.242 223.883 120.887C223.883 132.531 233.356 142.004 245.001 142.004C256.645 142.004 266.119 132.531 266.119 120.887C266.119 109.242 256.645 99.7686 245.001 99.7686ZM245.001 138.384C235.353 138.384 227.503 130.535 227.503 120.887C227.503 111.238 235.353 103.389 245.001 103.389C254.649 103.389 262.499 111.238 262.499 120.887C262.499 130.535 254.649 138.384 245.001 138.384Z" fill="#1F4877"/>
<path d="M251.016 118.273L254.288 121.546L251.016 124.818L253.575 127.378L259.408 121.546L253.575 115.713L251.016 118.273Z" fill="#1F4877"/>
<path d="M236.426 115.713L230.594 121.546L236.426 127.378L238.986 124.818L235.714 121.546L238.986 118.273L236.426 115.713Z" fill="#1F4877"/>
<path d="M241.172 132.553L245.403 108.599L248.969 109.228L244.738 133.183L241.172 132.553Z" fill="#1F4877"/>
<path d="M133.901 226.331C133.901 224.667 134.261 223.187 134.981 221.891C135.701 220.579 136.701 219.563 137.981 218.843C139.277 218.107 140.741 217.739 142.373 217.739C144.373 217.739 146.085 218.267 147.509 219.323C148.933 220.379 149.885 221.819 150.365 223.643H145.853C145.517 222.939 145.037 222.403 144.413 222.035C143.805 221.667 143.109 221.483 142.325 221.483C141.061 221.483 140.037 221.923 139.253 222.803C138.469 223.683 138.077 224.859 138.077 226.331C138.077 227.803 138.469 228.979 139.253 229.859C140.037 230.739 141.061 231.179 142.325 231.179C143.109 231.179 143.805 230.995 144.413 230.627C145.037 230.259 145.517 229.723 145.853 229.019H150.365C149.885 230.843 148.933 232.283 147.509 233.339C146.085 234.379 144.373 234.899 142.373 234.899C140.741 234.899 139.277 234.539 137.981 233.819C136.701 233.083 135.701 232.067 134.981 230.771C134.261 229.475 133.901 227.995 133.901 226.331ZM156.983 221.219V224.627H162.479V227.795H156.983V231.491H163.199V234.779H152.879V217.931H163.199V221.219H156.983ZM184.943 217.931V234.779H180.839V224.675L177.071 234.779H173.759L169.967 224.651V234.779H165.863V217.931H170.711L175.439 229.595L180.119 217.931H184.943ZM191.998 221.219V224.627H197.494V227.795H191.998V231.491H198.214V234.779H187.894V217.931H198.214V221.219H191.998ZM215.951 234.779H211.847L204.983 224.387V234.779H200.879V217.931H204.983L211.847 228.371V217.931H215.951V234.779ZM231.046 217.931V221.219H226.582V234.779H222.478V221.219H218.014V217.931H231.046ZM242.295 217.931V234.779H238.191V217.931H242.295ZM260.341 234.779H256.237L249.373 224.387V234.779H245.269V217.931H249.373L256.237 228.371V217.931H260.341V234.779ZM269.628 217.931C271.404 217.931 272.956 218.283 274.284 218.987C275.612 219.691 276.636 220.683 277.356 221.963C278.092 223.227 278.46 224.691 278.46 226.355C278.46 228.003 278.092 229.467 277.356 230.747C276.636 232.027 275.604 233.019 274.26 233.723C272.932 234.427 271.388 234.779 269.628 234.779H263.316V217.931H269.628ZM269.364 231.227C270.916 231.227 272.124 230.803 272.988 229.955C273.852 229.107 274.284 227.907 274.284 226.355C274.284 224.803 273.852 223.595 272.988 222.731C272.124 221.867 270.916 221.435 269.364 221.435H267.42V231.227H269.364ZM284.786 217.931V228.011C284.786 229.019 285.034 229.795 285.53 230.339C286.026 230.883 286.754 231.155 287.714 231.155C288.674 231.155 289.41 230.883 289.922 230.339C290.434 229.795 290.69 229.019 290.69 228.011V217.931H294.794V227.987C294.794 229.491 294.474 230.763 293.834 231.803C293.194 232.843 292.33 233.627 291.242 234.155C290.17 234.683 288.97 234.947 287.642 234.947C286.314 234.947 285.122 234.691 284.066 234.179C283.026 233.651 282.202 232.867 281.594 231.827C280.986 230.771 280.682 229.491 280.682 227.987V217.931H284.786ZM303.772 234.947C302.54 234.947 301.436 234.747 300.46 234.347C299.484 233.947 298.7 233.355 298.108 232.571C297.532 231.787 297.228 230.843 297.196 229.739H301.564C301.628 230.363 301.844 230.843 302.212 231.179C302.58 231.499 303.06 231.659 303.652 231.659C304.26 231.659 304.74 231.523 305.092 231.251C305.444 230.963 305.62 230.571 305.62 230.075C305.62 229.659 305.476 229.315 305.188 229.043C304.916 228.771 304.572 228.547 304.156 228.371C303.756 228.195 303.18 227.995 302.428 227.771C301.34 227.435 300.452 227.099 299.764 226.763C299.076 226.427 298.484 225.931 297.988 225.275C297.492 224.619 297.244 223.763 297.244 222.707C297.244 221.139 297.812 219.915 298.948 219.035C300.084 218.139 301.564 217.691 303.388 217.691C305.244 217.691 306.74 218.139 307.876 219.035C309.012 219.915 309.62 221.147 309.7 222.731H305.26C305.228 222.187 305.028 221.763 304.66 221.459C304.292 221.139 303.82 220.979 303.243 220.979C302.748 220.979 302.348 221.115 302.044 221.387C301.74 221.643 301.588 222.019 301.588 222.515C301.588 223.059 301.844 223.483 302.355 223.787C302.868 224.091 303.668 224.419 304.756 224.771C305.844 225.139 306.724 225.491 307.396 225.827C308.084 226.163 308.676 226.651 309.172 227.291C309.668 227.931 309.916 228.755 309.916 229.763C309.916 230.723 309.668 231.595 309.172 232.379C308.692 233.163 307.988 233.787 307.06 234.251C306.132 234.715 305.036 234.947 303.772 234.947ZM324.561 217.931V221.219H320.097V234.779H315.993V221.219H311.529V217.931H324.561ZM335.213 234.779L331.709 228.419H330.725V234.779H326.621V217.931H333.509C334.837 217.931 335.965 218.163 336.893 218.627C337.837 219.091 338.541 219.731 339.005 220.547C339.469 221.347 339.701 222.243 339.701 223.235C339.701 224.355 339.381 225.355 338.741 226.235C338.117 227.115 337.189 227.739 335.957 228.107L339.845 234.779H335.213ZM330.725 225.515H333.269C334.021 225.515 334.581 225.331 334.949 224.963C335.333 224.595 335.525 224.075 335.525 223.403C335.525 222.763 335.333 222.259 334.949 221.891C334.581 221.523 334.021 221.339 333.269 221.339H330.725V225.515ZM356.725 217.931L350.893 229.211V234.779H346.789V229.211L340.957 217.931H345.613L348.877 224.987L352.117 217.931H356.725Z" fill="#2B337C"/>
</svg>
