<svg width="490" height="303" viewBox="0 0 490 303" fill="none" xmlns="http://www.w3.org/2000/svg">
<mask id="path-1-inside-1_203_1791" fill="white">
<path d="M0 18.7928C0 8.41381 8.41385 0 18.7929 0H471.207C481.586 0 490 8.41385 490 18.7929V284.196C490 294.575 481.586 302.989 471.207 302.989H18.7928C8.41383 302.989 0 294.575 0 284.196V18.7928Z"/>
</mask>
<path d="M0 18.7928C0 8.41381 8.41385 0 18.7929 0H471.207C481.586 0 490 8.41385 490 18.7929V284.196C490 294.575 481.586 302.989 471.207 302.989H18.7928C8.41383 302.989 0 294.575 0 284.196V18.7928Z" fill="#E1E1E1"/>
<path d="M0 18.7929C0 2.891 12.891 -10 28.7929 -10H461.207C477.109 -10 490 2.891 490 18.7929C490 13.9367 481.586 10 471.207 10H18.7929C8.41385 10 0 13.9367 0 18.7929ZM490 302.989H0H490ZM0 302.989V0V302.989ZM490 0V302.989V0Z" fill="#1F4877" mask="url(#path-1-inside-1_203_1791)"/>
<path d="M275.395 115.789V99.9846H271.023C270.48 98.1587 269.751 96.397 268.843 94.7215L271.934 91.6301L260.759 80.4547L257.667 83.5461C255.992 82.6382 254.23 81.9081 252.404 81.3653V76.9941H236.6V81.3653C234.774 81.9081 233.012 82.6381 231.337 83.5461L228.245 80.4547L217.07 91.6301L220.161 94.7215C219.253 96.3971 218.523 98.1587 217.981 99.9846H213.609V115.789H217.981C218.523 117.615 219.253 119.376 220.161 121.052L217.07 124.143L228.245 135.319L231.337 132.227C233.012 133.135 234.774 133.865 236.6 134.408V138.779H252.404V134.408C254.23 133.865 255.992 133.135 257.667 132.227L260.759 135.319L271.934 124.143L268.843 121.052C269.751 119.376 270.481 117.615 271.023 115.789H275.395ZM268.212 112.169L267.877 113.554C267.293 115.975 266.337 118.281 265.038 120.407L264.294 121.623L266.814 124.143L260.759 130.199L258.239 127.679L257.023 128.422C254.896 129.722 252.59 130.677 250.169 131.262L248.784 131.597V135.159H240.22V131.597L238.835 131.262C236.414 130.677 234.108 129.722 231.982 128.422L230.765 127.679L228.245 130.199L222.19 124.143L224.71 121.623L223.967 120.407C222.667 118.281 221.712 115.975 221.127 113.554L220.792 112.169H217.23V103.605H220.792L221.127 102.22C221.711 99.7987 222.667 97.4928 223.967 95.3661L224.71 94.1499L222.19 91.63L228.245 85.5743L230.765 88.0942L231.981 87.3511C234.108 86.0515 236.414 85.096 238.835 84.5113L240.22 84.1768V80.6144H248.784V84.1769L250.169 84.5114C252.59 85.0961 254.896 86.0516 257.023 87.3512L258.239 88.0943L260.759 85.5744L266.814 91.6301L264.294 94.15L265.038 95.3662C266.337 97.4928 267.293 99.7987 267.877 102.22L268.212 103.605H271.774V112.169L268.212 112.169Z" fill="#1F4877"/>
<path d="M244.501 86.7686C232.856 86.7686 223.383 96.2421 223.383 107.887C223.383 119.531 232.856 129.004 244.501 129.004C256.145 129.004 265.619 119.531 265.619 107.887C265.619 96.2421 256.145 86.7686 244.501 86.7686ZM244.501 125.384C234.853 125.384 227.003 117.535 227.003 107.887C227.003 98.2383 234.853 90.3888 244.501 90.3888C254.149 90.3888 261.999 98.2383 261.999 107.887C261.999 117.535 254.149 125.384 244.501 125.384Z" fill="#1F4877"/>
<path d="M250.516 105.273L253.788 108.546L250.516 111.818L253.075 114.378L258.908 108.546L253.075 102.713L250.516 105.273Z" fill="#1F4877"/>
<path d="M235.926 102.713L230.094 108.546L235.926 114.378L238.486 111.818L235.214 108.546L238.486 105.273L235.926 102.713Z" fill="#1F4877"/>
<path d="M240.672 119.553L244.903 95.5985L248.469 96.2285L244.238 120.183L240.672 119.553Z" fill="#1F4877"/>
<path d="M113.437 216.803H107.149L106.141 219.779H101.845L107.941 202.931H112.693L118.789 219.779H114.445L113.437 216.803ZM112.381 213.635L110.293 207.467L108.229 213.635H112.381ZM131.828 208.259C131.524 207.699 131.084 207.275 130.508 206.987C129.948 206.683 129.284 206.531 128.516 206.531C127.188 206.531 126.124 206.971 125.324 207.851C124.524 208.715 124.124 209.875 124.124 211.331C124.124 212.883 124.54 214.099 125.372 214.979C126.22 215.843 127.38 216.275 128.852 216.275C129.86 216.275 130.708 216.019 131.396 215.507C132.1 214.995 132.612 214.259 132.932 213.299H127.724V210.275H136.652V214.091C136.348 215.115 135.828 216.067 135.092 216.947C134.372 217.827 133.452 218.539 132.332 219.083C131.212 219.627 129.948 219.899 128.54 219.899C126.876 219.899 125.388 219.539 124.076 218.819C122.78 218.083 121.764 217.067 121.028 215.771C120.308 214.475 119.948 212.995 119.948 211.331C119.948 209.667 120.308 208.187 121.028 206.891C121.764 205.579 122.78 204.563 124.076 203.843C125.372 203.107 126.852 202.739 128.516 202.739C130.532 202.739 132.228 203.227 133.604 204.203C134.996 205.179 135.916 206.531 136.364 208.259H131.828ZM150.109 208.259C149.806 207.699 149.366 207.275 148.79 206.987C148.23 206.683 147.566 206.531 146.798 206.531C145.47 206.531 144.406 206.971 143.605 207.851C142.806 208.715 142.406 209.875 142.406 211.331C142.406 212.883 142.822 214.099 143.654 214.979C144.502 215.843 145.662 216.275 147.134 216.275C148.142 216.275 148.99 216.019 149.678 215.507C150.382 214.995 150.894 214.259 151.214 213.299H146.006V210.275H154.934V214.091C154.63 215.115 154.11 216.067 153.374 216.947C152.654 217.827 151.734 218.539 150.614 219.083C149.494 219.627 148.23 219.899 146.822 219.899C145.158 219.899 143.67 219.539 142.358 218.819C141.062 218.083 140.046 217.067 139.31 215.771C138.59 214.475 138.229 212.995 138.229 211.331C138.229 209.667 138.59 208.187 139.31 206.891C140.046 205.579 141.062 204.563 142.358 203.843C143.654 203.107 145.134 202.739 146.798 202.739C148.814 202.739 150.51 203.227 151.886 204.203C153.278 205.179 154.198 206.531 154.646 208.259H150.109ZM165.799 219.779L162.295 213.419H161.311V219.779H157.207V202.931H164.095C165.423 202.931 166.551 203.163 167.479 203.627C168.423 204.091 169.127 204.731 169.591 205.547C170.055 206.347 170.287 207.243 170.287 208.235C170.287 209.355 169.967 210.355 169.327 211.235C168.703 212.115 167.775 212.739 166.543 213.107L170.431 219.779H165.799ZM161.311 210.515H163.855C164.607 210.515 165.167 210.331 165.535 209.963C165.919 209.595 166.111 209.075 166.111 208.403C166.111 207.763 165.919 207.259 165.535 206.891C165.167 206.523 164.607 206.339 163.855 206.339H161.311V210.515ZM176.967 206.219V209.627H182.463V212.795H176.967V216.491H183.183V219.779H172.863V202.931H183.183V206.219H176.967ZM197.031 208.259C196.727 207.699 196.287 207.275 195.711 206.987C195.151 206.683 194.487 206.531 193.719 206.531C192.391 206.531 191.327 206.971 190.527 207.851C189.727 208.715 189.327 209.875 189.327 211.331C189.327 212.883 189.743 214.099 190.575 214.979C191.423 215.843 192.583 216.275 194.055 216.275C195.063 216.275 195.911 216.019 196.599 215.507C197.303 214.995 197.815 214.259 198.135 213.299H192.927V210.275H201.855V214.091C201.551 215.115 201.031 216.067 200.295 216.947C199.575 217.827 198.655 218.539 197.535 219.083C196.415 219.627 195.151 219.899 193.743 219.899C192.079 219.899 190.591 219.539 189.279 218.819C187.983 218.083 186.967 217.067 186.231 215.771C185.511 214.475 185.151 212.995 185.151 211.331C185.151 209.667 185.511 208.187 186.231 206.891C186.967 205.579 187.983 204.563 189.279 203.843C190.575 203.107 192.055 202.739 193.719 202.739C195.735 202.739 197.431 203.227 198.807 204.203C200.199 205.179 201.119 206.531 201.567 208.259H197.031ZM214.617 216.803H208.329L207.321 219.779H203.025L209.121 202.931H213.873L219.969 219.779H215.625L214.617 216.803ZM213.561 213.635L211.473 207.467L209.409 213.635H213.561ZM233.944 202.931V206.219H229.48V219.779H225.376V206.219H220.912V202.931H233.944ZM240.108 206.219V209.627H245.604V212.795H240.108V216.491H246.324V219.779H236.004V202.931H246.324V206.219H240.108ZM255.084 219.947C253.852 219.947 252.748 219.747 251.772 219.347C250.796 218.947 250.012 218.355 249.42 217.571C248.844 216.787 248.54 215.843 248.508 214.739H252.876C252.94 215.363 253.156 215.843 253.524 216.179C253.892 216.499 254.372 216.659 254.964 216.659C255.572 216.659 256.052 216.523 256.404 216.251C256.756 215.963 256.932 215.571 256.932 215.075C256.932 214.659 256.788 214.315 256.5 214.043C256.228 213.771 255.884 213.547 255.468 213.371C255.068 213.195 254.492 212.995 253.74 212.771C252.652 212.435 251.764 212.099 251.076 211.763C250.388 211.427 249.796 210.931 249.3 210.275C248.804 209.619 248.556 208.763 248.556 207.707C248.556 206.139 249.124 204.915 250.26 204.035C251.396 203.139 252.876 202.691 254.7 202.691C256.556 202.691 258.052 203.139 259.188 204.035C260.324 204.915 260.932 206.147 261.012 207.731H256.572C256.54 207.187 256.34 206.763 255.972 206.459C255.604 206.139 255.132 205.979 254.556 205.979C254.06 205.979 253.66 206.115 253.356 206.387C253.052 206.643 252.9 207.019 252.9 207.515C252.9 208.059 253.156 208.483 253.668 208.787C254.18 209.091 254.98 209.419 256.068 209.771C257.156 210.139 258.036 210.491 258.708 210.827C259.396 211.163 259.988 211.651 260.484 212.291C260.98 212.931 261.228 213.755 261.228 214.763C261.228 215.723 260.98 216.595 260.484 217.379C260.004 218.163 259.3 218.787 258.372 219.251C257.444 219.715 256.348 219.947 255.084 219.947ZM272.944 202.931V219.779H268.84V202.931H272.944ZM290.99 219.779H286.886L280.022 209.387V219.779H275.918V202.931H280.022L286.886 213.371V202.931H290.99V219.779ZM300.277 202.931C302.053 202.931 303.605 203.283 304.933 203.987C306.261 204.691 307.285 205.683 308.005 206.963C308.741 208.227 309.109 209.691 309.109 211.355C309.109 213.003 308.741 214.467 308.005 215.747C307.285 217.027 306.253 218.019 304.909 218.723C303.581 219.427 302.037 219.779 300.277 219.779H293.965V202.931H300.277ZM300.013 216.227C301.565 216.227 302.773 215.803 303.637 214.955C304.501 214.107 304.933 212.907 304.933 211.355C304.933 209.803 304.501 208.595 303.637 207.731C302.773 206.867 301.565 206.435 300.013 206.435H298.069V216.227H300.013ZM315.434 202.931V213.011C315.434 214.019 315.682 214.795 316.178 215.339C316.674 215.883 317.402 216.155 318.362 216.155C319.322 216.155 320.058 215.883 320.57 215.339C321.082 214.795 321.338 214.019 321.338 213.011V202.931H325.442V212.987C325.442 214.491 325.122 215.763 324.482 216.803C323.842 217.843 322.978 218.627 321.89 219.155C320.818 219.683 319.618 219.947 318.29 219.947C316.962 219.947 315.77 219.691 314.714 219.179C313.674 218.651 312.85 217.867 312.242 216.827C311.634 215.771 311.33 214.491 311.33 212.987V202.931H315.434ZM334.42 219.947C333.188 219.947 332.084 219.747 331.108 219.347C330.132 218.947 329.348 218.355 328.756 217.571C328.18 216.787 327.876 215.843 327.844 214.739H332.212C332.276 215.363 332.492 215.843 332.86 216.179C333.228 216.499 333.708 216.659 334.3 216.659C334.908 216.659 335.388 216.523 335.74 216.251C336.092 215.963 336.268 215.571 336.268 215.075C336.268 214.659 336.124 214.315 335.836 214.043C335.564 213.771 335.22 213.547 334.804 213.371C334.404 213.195 333.828 212.995 333.076 212.771C331.988 212.435 331.1 212.099 330.412 211.763C329.724 211.427 329.132 210.931 328.636 210.275C328.14 209.619 327.892 208.763 327.892 207.707C327.892 206.139 328.46 204.915 329.596 204.035C330.732 203.139 332.212 202.691 334.036 202.691C335.892 202.691 337.388 203.139 338.524 204.035C339.66 204.915 340.268 206.147 340.348 207.731H335.908C335.876 207.187 335.676 206.763 335.308 206.459C334.94 206.139 334.468 205.979 333.892 205.979C333.396 205.979 332.996 206.115 332.692 206.387C332.388 206.643 332.236 207.019 332.236 207.515C332.236 208.059 332.492 208.483 333.004 208.787C333.516 209.091 334.316 209.419 335.404 209.771C336.492 210.139 337.372 210.491 338.044 210.827C338.732 211.163 339.324 211.651 339.82 212.291C340.316 212.931 340.564 213.755 340.564 214.763C340.564 215.723 340.316 216.595 339.82 217.379C339.34 218.163 338.636 218.787 337.708 219.251C336.78 219.715 335.684 219.947 334.42 219.947ZM355.21 202.931V206.219H350.746V219.779H346.642V206.219H342.178V202.931H355.21ZM365.861 219.779L362.357 213.419H361.373V219.779H357.269V202.931H364.157C365.485 202.931 366.613 203.163 367.541 203.627C368.485 204.091 369.189 204.731 369.653 205.547C370.117 206.347 370.349 207.243 370.349 208.235C370.349 209.355 370.029 210.355 369.389 211.235C368.765 212.115 367.837 212.739 366.605 213.107L370.493 219.779H365.861ZM361.373 210.515H363.917C364.669 210.515 365.229 210.331 365.597 209.963C365.981 209.595 366.173 209.075 366.173 208.403C366.173 207.763 365.981 207.259 365.597 206.891C365.229 206.523 364.669 206.339 363.917 206.339H361.373V210.515ZM387.374 202.931L381.542 214.211V219.779H377.438V214.211L371.606 202.931H376.262L379.526 209.987L382.766 202.931H387.374Z" fill="#2B337C"/>
</svg>
