<svg width="490" height="326" viewBox="0 0 490 326" fill="none" xmlns="http://www.w3.org/2000/svg">
<mask id="path-1-inside-1_203_1757" fill="white">
<path d="M0 21.787C0 11.408 8.41385 2.99414 18.7929 2.99414H471.207C481.586 2.99414 490 11.408 490 21.787V298.201C490 308.58 481.586 316.994 471.207 316.994H18.7928C8.41383 316.994 0 308.58 0 298.201V21.787Z"/>
</mask>
<path d="M0 21.787C0 11.408 8.41385 2.99414 18.7929 2.99414H471.207C481.586 2.99414 490 11.408 490 21.787V298.201C490 308.58 481.586 316.994 471.207 316.994H18.7928C8.41383 316.994 0 308.58 0 298.201V21.787Z" fill="#E1E1E1"/>
<path d="M0 21.787C0 5.88514 12.891 -7.00586 28.7929 -7.00586H461.207C477.109 -7.00586 490 5.88514 490 21.787C490 16.9308 481.586 12.9941 471.207 12.9941H18.7929C8.41385 12.9941 0 16.9308 0 21.787ZM490 316.994H0H490ZM0 316.994V2.99414V316.994ZM490 2.99414V316.994V2.99414Z" fill="#1F4877" mask="url(#path-1-inside-1_203_1757)"/>
<path d="M217.598 146.969C217.598 147.969 218.408 148.779 219.408 148.779H226.648C227.648 148.779 228.458 147.969 228.458 146.969V138.522C228.458 137.522 227.648 136.712 226.648 136.712H219.408C218.408 136.712 217.598 137.522 217.598 138.522V146.969ZM221.218 140.332H224.838V145.159H221.218V140.332Z" fill="#1F4877"/>
<path d="M242.939 146.969V129.573C242.939 128.573 242.128 127.763 241.129 127.763H233.888C232.889 127.763 232.078 128.573 232.078 129.573V146.969C232.078 147.969 232.889 148.779 233.888 148.779H241.129C242.128 148.779 242.939 147.969 242.939 146.969ZM239.319 145.159H235.698V131.383H239.319V145.159Z" fill="#1F4877"/>
<path d="M257.419 146.969V116.155C257.419 115.155 256.609 114.345 255.609 114.345H248.369C247.369 114.345 246.559 115.155 246.559 116.155V146.969C246.559 147.969 247.369 148.779 248.369 148.779H255.609C256.609 148.779 257.419 147.969 257.419 146.969ZM253.799 145.159H250.179V117.965H253.799V145.159Z" fill="#1F4877"/>
<path d="M271.9 146.969V102.807C271.9 101.808 271.089 100.997 270.09 100.997H262.849C261.85 100.997 261.039 101.808 261.039 102.807V146.969C261.039 147.969 261.85 148.779 262.849 148.779H270.09C271.089 148.779 271.9 147.969 271.9 146.969ZM268.279 145.159H264.659V104.617H268.279V145.159Z" fill="#1F4877"/>
<path d="M271.611 87.3072C270.784 86.7454 269.658 86.9603 269.097 87.7873L265.041 93.7566H258.856C258.183 93.7566 257.565 94.1306 257.253 94.7272L250.773 107.104H244.749C244.088 107.104 243.48 107.464 243.162 108.044L236.317 120.522H230.268C229.672 120.522 229.115 120.816 228.777 121.307L223.162 129.471H219.408C218.408 129.471 217.598 130.282 217.598 131.282C217.598 132.281 218.408 133.092 219.408 133.092H224.114C224.71 133.092 225.268 132.798 225.605 132.307L231.22 124.142H237.388C238.049 124.142 238.657 123.782 238.975 123.203L245.821 110.724H251.869C252.542 110.724 253.16 110.35 253.473 109.754L259.952 97.3768H265.999C266.599 97.3768 267.16 97.08 267.496 96.584L272.091 89.8218C272.653 88.9948 272.438 87.8691 271.611 87.3072Z" fill="#1F4877"/>
<path d="M132.581 214.931V218.219H125.717V221.771H130.853V224.963H125.717V231.779H121.613V214.931H132.581ZM138.842 218.219V221.627H144.338V224.795H138.842V228.491H145.058V231.779H134.738V214.931H145.058V218.219H138.842ZM156.314 231.779L152.81 225.419H151.826V231.779H147.722V214.931H154.61C155.938 214.931 157.066 215.163 157.994 215.627C158.938 216.091 159.642 216.731 160.106 217.547C160.57 218.347 160.802 219.243 160.802 220.235C160.802 221.355 160.482 222.355 159.842 223.235C159.218 224.115 158.29 224.739 157.058 225.107L160.946 231.779H156.314ZM151.826 222.515H154.37C155.122 222.515 155.682 222.331 156.05 221.963C156.434 221.595 156.626 221.075 156.626 220.403C156.626 219.763 156.434 219.259 156.05 218.891C155.682 218.523 155.122 218.339 154.37 218.339H151.826V222.515ZM175.499 214.931V218.219H171.035V231.779H166.931V218.219H162.467V214.931H175.499ZM181.662 214.931V231.779H177.558V214.931H181.662ZM188.74 228.611H194.116V231.779H184.636V214.931H188.74V228.611ZM200.178 214.931V231.779H196.074V214.931H200.178ZM207.52 228.419H214.768V231.779H202.864V228.659L210.064 218.291H202.864V214.931H214.768V218.051L207.52 228.419ZM221.553 218.219V221.627H227.049V224.795H221.553V228.491H227.769V231.779H217.449V214.931H227.769V218.219H221.553ZM239.025 231.779L235.521 225.419H234.537V231.779H230.433V214.931H237.321C238.649 214.931 239.777 215.163 240.705 215.627C241.649 216.091 242.353 216.731 242.817 217.547C243.281 218.347 243.513 219.243 243.513 220.235C243.513 221.355 243.193 222.355 242.553 223.235C241.929 224.115 241.001 224.739 239.769 225.107L243.657 231.779H239.025ZM234.537 222.515H237.081C237.833 222.515 238.393 222.331 238.761 221.963C239.145 221.595 239.337 221.075 239.337 220.403C239.337 219.763 239.145 219.259 238.761 218.891C238.393 218.523 237.833 218.339 237.081 218.339H234.537V222.515ZM255.28 214.931V231.779H251.176V214.931H255.28ZM273.326 231.779H269.222L262.358 221.387V231.779H258.254V214.931H262.358L269.222 225.371V214.931H273.326V231.779ZM282.613 214.931C284.389 214.931 285.941 215.283 287.269 215.987C288.597 216.691 289.621 217.683 290.341 218.963C291.077 220.227 291.445 221.691 291.445 223.355C291.445 225.003 291.077 226.467 290.341 227.747C289.621 229.027 288.589 230.019 287.245 230.723C285.917 231.427 284.373 231.779 282.613 231.779H276.301V214.931H282.613ZM282.349 228.227C283.901 228.227 285.109 227.803 285.973 226.955C286.837 226.107 287.269 224.907 287.269 223.355C287.269 221.803 286.837 220.595 285.973 219.731C285.109 218.867 283.901 218.435 282.349 218.435H280.405V228.227H282.349ZM297.77 214.931V225.011C297.77 226.019 298.018 226.795 298.514 227.339C299.01 227.883 299.738 228.155 300.698 228.155C301.658 228.155 302.394 227.883 302.906 227.339C303.418 226.795 303.674 226.019 303.674 225.011V214.931H307.778V224.987C307.778 226.491 307.458 227.763 306.818 228.803C306.178 229.843 305.314 230.627 304.226 231.155C303.154 231.683 301.954 231.947 300.626 231.947C299.298 231.947 298.106 231.691 297.05 231.179C296.01 230.651 295.186 229.867 294.578 228.827C293.97 227.771 293.666 226.491 293.666 224.987V214.931H297.77ZM316.756 231.947C315.524 231.947 314.42 231.747 313.444 231.347C312.468 230.947 311.684 230.355 311.092 229.571C310.516 228.787 310.212 227.843 310.18 226.739H314.548C314.612 227.363 314.828 227.843 315.196 228.179C315.564 228.499 316.044 228.659 316.636 228.659C317.244 228.659 317.724 228.523 318.076 228.251C318.428 227.963 318.604 227.571 318.604 227.075C318.604 226.659 318.46 226.315 318.172 226.043C317.9 225.771 317.556 225.547 317.14 225.371C316.74 225.195 316.164 224.995 315.412 224.771C314.324 224.435 313.436 224.099 312.748 223.763C312.06 223.427 311.468 222.931 310.972 222.275C310.476 221.619 310.228 220.763 310.228 219.707C310.228 218.139 310.796 216.915 311.932 216.035C313.068 215.139 314.548 214.691 316.372 214.691C318.228 214.691 319.724 215.139 320.86 216.035C321.996 216.915 322.604 218.147 322.684 219.731H318.244C318.212 219.187 318.012 218.763 317.644 218.459C317.276 218.139 316.804 217.979 316.228 217.979C315.732 217.979 315.332 218.115 315.028 218.387C314.724 218.643 314.572 219.019 314.572 219.515C314.572 220.059 314.828 220.483 315.34 220.787C315.852 221.091 316.652 221.419 317.74 221.771C318.828 222.139 319.708 222.491 320.38 222.827C321.068 223.163 321.66 223.651 322.156 224.291C322.652 224.931 322.9 225.755 322.9 226.763C322.9 227.723 322.652 228.595 322.156 229.379C321.676 230.163 320.972 230.787 320.044 231.251C319.116 231.715 318.02 231.947 316.756 231.947ZM337.546 214.931V218.219H333.082V231.779H328.978V218.219H324.514V214.931H337.546ZM348.197 231.779L344.693 225.419H343.709V231.779H339.605V214.931H346.493C347.821 214.931 348.949 215.163 349.877 215.627C350.821 216.091 351.525 216.731 351.989 217.547C352.453 218.347 352.685 219.243 352.685 220.235C352.685 221.355 352.365 222.355 351.725 223.235C351.101 224.115 350.173 224.739 348.941 225.107L352.829 231.779H348.197ZM343.709 222.515H346.253C347.005 222.515 347.565 222.331 347.933 221.963C348.317 221.595 348.509 221.075 348.509 220.403C348.509 219.763 348.317 219.259 347.933 218.891C347.565 218.523 347.005 218.339 346.253 218.339H343.709V222.515ZM369.709 214.931L363.877 226.211V231.779H359.773V226.211L353.941 214.931H358.597L361.861 221.987L365.101 214.931H369.709Z" fill="#2B337C"/>
</svg>
