<?xml version="1.0" standalone="no"?>
<!DOCTYPE svg PUBLIC "-//W3C//DTD SVG 20010904//EN"
 "http://www.w3.org/TR/2001/REC-SVG-20010904/DTD/svg10.dtd">
<svg version="1.0" xmlns="http://www.w3.org/2000/svg"
 width="1016.000000pt" height="1016.000000pt" viewBox="0 0 1016.000000 1016.000000"
 preserveAspectRatio="xMidYMid meet">
<metadata>
Created by potrace 1.14, written by Peter Selinger 2001-2017
</metadata>
<g transform="translate(0.000000,1016.000000) scale(0.100000,-0.100000)"
fill="#000000" stroke="none">
<path d="M4717 10154 c-1 -1 -20 -5 -42 -8 -61 -10 -97 -15 -130 -21 -16 -3
-46 -8 -65 -11 -19 -2 -46 -6 -60 -9 -14 -3 -43 -7 -65 -11 -22 -3 -53 -8 -70
-11 -16 -3 -41 -7 -55 -9 -14 -1 -25 -3 -25 -4 0 -1 -13 -3 -30 -5 -16 -2 -43
-6 -60 -9 -16 -4 -46 -9 -65 -12 -33 -5 -100 -16 -180 -29 -19 -4 -51 -8 -70
-11 -19 -2 -44 -6 -55 -8 -11 -3 -23 -5 -27 -5 -5 -1 -7 -4 -6 -8 3 -10 -23
-145 -30 -157 -3 -5 -6 -23 -8 -40 -4 -42 -12 -94 -18 -115 -3 -9 -8 -29 -11
-46 -19 -113 -55 -278 -60 -283 -4 -4 -10 -7 -13 -8 -11 -1 -203 -90 -374
-175 -54 -26 -98 -45 -98 -41 0 4 -4 2 -8 -4 -4 -6 -49 -32 -100 -58 -51 -25
-116 -59 -145 -75 -28 -16 -68 -37 -87 -47 -19 -11 -37 -21 -40 -24 -3 -3 -21
-13 -40 -24 -62 -33 -218 -128 -294 -178 -83 -56 -222 -167 -276 -220 -38 -37
-77 -67 -93 -70 -15 -3 -27 -2 -27 1 0 4 -10 7 -22 8 -27 0 -122 11 -158 17
-48 8 -165 24 -240 32 -25 3 -56 6 -70 8 -14 2 -47 7 -75 10 -27 4 -66 8 -85
11 -19 2 -55 7 -80 10 -25 3 -59 7 -75 9 -30 4 -33 -1 -160 -211 -72 -118
-140 -231 -152 -252 -13 -20 -26 -43 -30 -51 -4 -8 -20 -34 -35 -56 -15 -23
-28 -45 -28 -50 0 -4 -11 -22 -25 -40 -14 -18 -25 -37 -25 -43 0 -5 -6 -16
-13 -23 -24 -27 -39 -61 -29 -67 12 -7 166 -147 234 -211 26 -25 69 -64 95
-87 27 -22 64 -56 84 -74 19 -19 70 -65 113 -104 137 -122 133 -117 141 -191
7 -71 12 -106 20 -139 2 -11 7 -43 10 -71 3 -28 8 -61 11 -75 2 -13 11 -60 20
-104 8 -44 24 -118 35 -165 12 -47 23 -94 25 -106 6 -32 62 -217 75 -250 7
-16 13 -31 14 -34 5 -20 51 -106 57 -108 4 -2 8 -10 8 -18 0 -8 5 -14 10 -14
6 0 10 -6 10 -14 0 -17 30 -30 31 -13 3 65 14 183 24 242 20 129 41 240 45
240 1 0 3 11 5 25 7 65 102 365 160 505 60 145 181 386 198 393 4 2 7 10 7 18
0 8 5 14 10 14 6 0 10 5 10 11 0 17 128 197 214 299 79 94 167 184 262 268 50
45 269 212 277 212 3 0 34 17 68 39 99 59 199 111 199 103 0 -4 4 -2 8 4 6 9
82 44 207 94 98 39 289 99 370 115 103 21 245 46 275 50 19 2 60 6 90 10 30 3
66 8 79 10 105 18 545 25 701 11 47 -5 110 -10 140 -12 30 -2 56 -4 58 -5 4
-3 17 -5 82 -13 36 -4 74 -10 85 -12 11 -3 29 -6 40 -8 11 -2 31 -6 45 -10 14
-3 39 -8 55 -11 51 -10 54 -11 61 -17 3 -4 12 -4 19 -2 7 3 16 0 20 -5 3 -6
10 -9 15 -6 5 3 21 0 37 -6 15 -6 37 -13 47 -15 58 -11 230 -73 356 -126 104
-45 299 -145 328 -168 10 -8 35 -24 55 -34 20 -11 37 -23 37 -28 0 -4 5 -8 10
-8 13 0 193 -135 258 -193 97 -88 227 -222 290 -301 36 -44 68 -83 71 -86 31
-24 228 -345 287 -465 16 -33 33 -63 37 -66 5 -3 8 -9 8 -13 -1 -3 6 -22 14
-42 8 -20 15 -40 15 -45 0 -5 5 -9 12 -9 6 0 9 -3 5 -6 -3 -4 0 -18 7 -33 27
-51 140 -367 151 -422 2 -9 12 -47 23 -85 40 -139 45 -184 45 -409 0 -154 -5
-251 -18 -342 -13 -91 -19 -127 -30 -188 -4 -22 -9 -47 -10 -55 -39 -214 -211
-657 -306 -792 -10 -14 -19 -29 -19 -32 0 -6 -64 -107 -83 -131 -4 -5 -29 -39
-55 -75 -26 -36 -55 -74 -65 -85 -10 -11 -28 -33 -40 -49 -24 -31 -207 -218
-274 -278 -23 -21 -46 -38 -52 -38 -6 0 -11 -4 -11 -9 0 -5 -37 -36 -82 -70
-46 -33 -89 -65 -95 -71 -18 -15 -189 -121 -243 -151 -25 -13 -47 -27 -50 -30
-12 -14 -289 -142 -395 -183 -33 -13 -69 -27 -80 -31 -11 -5 -22 -9 -25 -10
-3 -1 -14 -5 -25 -9 -11 -4 -31 -12 -45 -16 -14 -4 -34 -11 -45 -16 -11 -4
-24 -8 -30 -10 -5 -1 -41 -12 -80 -24 -131 -40 -187 -55 -396 -105 -9 -2 -33
-6 -54 -9 -20 -4 -40 -8 -44 -10 -3 -2 -28 -7 -56 -10 -27 -4 -57 -9 -65 -11
-23 -6 -70 -14 -125 -21 -27 -4 -56 -11 -62 -16 -9 -7 -13 -7 -13 1 0 8 -5 9
-19 2 -10 -6 -21 -8 -24 -5 -3 3 -13 2 -23 -4 -13 -8 -3 -14 52 -33 38 -12 74
-24 79 -26 6 -1 42 -12 80 -23 86 -25 87 -25 210 -50 185 -38 264 -45 490 -45
207 0 324 10 437 36 l47 11 63 -49 c72 -55 66 -51 178 -137 47 -36 90 -69 95
-74 6 -4 60 -46 120 -92 61 -46 126 -97 146 -112 l36 -29 84 40 c46 21 120 56
164 76 44 21 107 50 140 65 67 30 146 67 250 115 39 18 102 47 142 65 l72 33
-5 146 c-9 276 -12 366 -19 536 l-6 170 28 17 c15 10 47 34 70 55 23 21 69 63
104 93 122 107 275 267 374 390 37 47 72 87 77 88 4 2 8 10 8 18 0 8 5 14 11
14 5 0 7 4 4 10 -3 5 -2 10 3 10 23 0 154 240 192 354 25 72 31 101 44 191 2
13 14 22 37 27 19 4 43 10 54 12 60 15 132 28 140 27 2 0 23 6 45 14 22 8 40
12 40 10 0 -2 15 1 33 6 17 5 43 11 57 14 23 4 178 39 225 50 49 12 81 19 95
20 42 6 160 37 161 43 3 18 8 77 14 177 4 61 8 126 9 145 2 19 7 85 11 145 4
61 9 135 11 165 2 30 6 93 9 140 3 47 7 97 9 113 2 21 -3 32 -24 47 -16 11
-30 20 -33 20 -3 0 -83 38 -179 84 -95 46 -252 122 -349 169 -99 47 -176 91
-176 98 -1 33 -31 265 -40 304 -11 55 -24 122 -25 135 0 8 -9 53 -20 100 -11
47 -22 92 -23 100 -2 8 -4 17 -5 20 -1 3 -3 10 -4 15 -5 25 -19 73 -31 110 -8
22 -16 51 -19 65 -6 34 -85 233 -97 244 -5 6 -9 18 -9 28 0 10 -4 18 -10 18
-5 0 -10 5 -10 11 0 34 -159 246 -174 232 -3 -4 -6 -4 -6 -1 0 5 110 273 142
348 6 14 12 28 12 32 1 3 4 10 9 14 4 4 7 16 7 26 0 10 4 18 8 18 5 0 9 6 9
13 0 6 9 32 21 57 11 25 40 93 65 152 l45 108 -75 67 c-41 38 -87 79 -102 93
-14 14 -55 50 -90 80 -36 30 -74 64 -86 75 -11 11 -56 52 -100 90 -43 39 -91
82 -107 96 -15 14 -53 47 -84 75 -32 27 -62 54 -68 59 -14 14 -23 12 -71 -9
-22 -10 -44 -19 -50 -20 -5 -2 -23 -9 -40 -16 -16 -7 -32 -14 -35 -15 -3 -1
-16 -6 -30 -12 -14 -6 -88 -36 -165 -68 -77 -31 -151 -62 -165 -68 -14 -5 -29
-11 -35 -12 -5 -2 -35 -14 -65 -27 -103 -46 -175 -73 -190 -69 -8 1 -52 21
-99 43 -240 113 -484 215 -801 333 -47 18 -201 66 -223 70 -9 2 -21 6 -25 9
-5 3 -19 7 -33 10 -13 3 -44 10 -69 17 -25 6 -49 12 -55 13 -5 2 -28 6 -50 11
-22 4 -49 9 -60 12 -11 2 -65 6 -120 10 -55 3 -104 9 -108 13 -9 8 -174 289
-231 395 -6 11 -14 22 -17 25 -5 5 -66 109 -117 200 -34 62 -41 69 -63 67 -11
-1 -21 -2 -22 -3z"/>
<path d="M4547 8164 c-3 -3 -58 -7 -124 -10 -65 -2 -128 -6 -140 -8 -11 -3
-43 -8 -70 -12 -26 -3 -57 -8 -68 -10 -11 -2 -33 -7 -50 -10 -78 -14 -261 -67
-331 -95 -16 -7 -31 -13 -34 -14 -12 -2 -92 -40 -175 -82 -216 -109 -433 -278
-603 -468 -104 -117 -258 -341 -314 -457 -13 -27 -26 -48 -30 -48 -5 0 -8 -7
-8 -15 0 -8 -9 -31 -19 -52 -38 -75 -137 -325 -145 -365 -2 -7 -9 -33 -16 -58
-17 -56 -18 -60 -24 -88 -3 -12 -7 -26 -10 -30 -3 -5 -8 -24 -11 -43 -3 -19
-10 -52 -15 -74 -5 -22 -12 -55 -15 -74 -3 -19 -7 -37 -9 -40 -2 -3 -7 -30
-11 -60 -4 -30 -9 -63 -11 -75 -2 -11 -6 -36 -9 -56 -3 -19 -8 -55 -11 -80 -4
-25 -7 -1335 -8 -2913 l-1 -2867 510 0 510 0 2 153 c0 83 4 433 7 777 7 697
13 1351 20 2118 3 283 7 516 9 519 3 2 1 17 -3 33 -4 16 -6 31 -3 33 2 3 7
247 9 544 11 1315 11 1327 30 1411 3 13 7 43 10 65 3 23 16 85 29 138 13 53
25 102 27 109 2 7 18 56 36 109 18 53 34 100 35 105 10 44 156 311 177 326 4
3 13 16 20 30 15 30 17 32 122 141 46 47 116 110 157 138 86 61 201 127 201
114 0 -4 4 -3 8 3 6 10 114 51 155 60 10 2 28 6 40 10 12 4 33 8 47 9 14 2 39
6 55 9 71 13 309 7 367 -10 9 -3 26 -7 39 -9 17 -3 82 -22 139 -40 145 -46
356 -185 470 -309 123 -135 247 -372 264 -506 3 -19 6 -35 7 -35 2 0 6 -29 13
-90 13 -122 5 -275 -20 -399 -2 -11 -7 -34 -9 -50 -13 -66 -49 -185 -83 -265
-37 -89 -99 -204 -114 -209 -4 -2 -8 -8 -8 -14 0 -22 -146 -183 -221 -243 -85
-68 -281 -180 -293 -168 -3 4 -6 1 -6 -5 0 -7 -3 -11 -7 -10 -5 1 -19 -4 -33
-12 -14 -7 -26 -13 -27 -12 -2 1 -5 1 -8 1 -3 -1 -8 -2 -12 -3 -5 -1 -42 -13
-83 -25 -41 -13 -84 -25 -97 -27 -13 -2 -34 -6 -48 -9 -53 -11 -71 -14 -110
-19 -68 -8 -177 -17 -253 -20 -40 -2 -76 -6 -79 -10 -8 -8 -8 -10 -18 -106 -4
-41 -9 -91 -11 -110 -2 -19 -6 -57 -8 -85 -3 -27 -7 -70 -10 -95 -4 -25 -8
-67 -11 -95 -3 -27 -8 -66 -11 -86 -3 -19 -7 -57 -9 -85 -2 -27 -5 -49 -5 -49
-1 0 -3 -16 -5 -35 -3 -43 -15 -156 -20 -190 -2 -14 -7 -54 -10 -90 -4 -36 -8
-69 -8 -75 -3 -15 209 -8 305 10 9 2 38 7 65 11 26 3 57 8 68 10 11 3 36 7 55
10 19 3 42 7 50 10 8 3 29 8 45 11 17 2 51 10 77 18 25 7 49 11 52 8 3 -4 6
-2 6 3 0 5 11 11 24 12 28 2 239 71 340 112 135 53 213 90 341 161 33 18 69
37 80 43 49 27 227 151 303 212 94 75 257 234 317 309 22 27 47 58 56 67 8 10
41 57 74 105 32 49 71 107 87 131 16 23 26 42 23 42 -4 0 2 12 12 28 67 97
227 518 215 565 -1 4 3 7 9 7 5 0 8 3 5 8 -2 4 2 33 9 65 7 32 14 60 14 62 1
3 1 6 2 8 2 8 9 49 15 92 4 28 8 61 10 75 7 49 17 166 18 213 0 26 4 47 9 47
4 0 5 5 2 10 -6 9 -7 42 -4 113 1 22 -11 199 -16 226 -2 14 -7 46 -10 71 -17
132 -63 309 -115 445 -31 83 -121 269 -134 277 -6 4 -8 8 -4 8 15 0 -147 237
-222 324 -40 46 -224 228 -261 259 -19 15 -47 39 -64 53 -40 34 -239 165 -295
195 -25 13 -53 30 -64 39 -10 8 -19 14 -20 12 0 -2 -37 13 -81 33 -44 21 -123
53 -175 72 -52 18 -102 36 -110 40 -8 3 -20 7 -26 8 -6 2 -38 11 -70 20 -32 9
-68 18 -79 20 -11 1 -27 5 -35 7 -56 19 -260 47 -387 53 -58 3 -109 7 -113 10
-4 2 -10 2 -13 -1z"/>
<path d="M4599 6219 c-7 -4 -16 -6 -21 -3 -13 8 -120 -27 -183 -60 -126 -65
-217 -171 -254 -294 -22 -72 -20 -207 3 -272 45 -121 140 -226 258 -284 161
-79 350 -83 518 -13 14 6 27 11 30 11 3 1 18 10 35 21 218 144 298 377 202
596 -21 47 -85 132 -122 161 -17 12 -36 29 -44 36 -18 18 -160 84 -186 87 -5
1 -25 5 -44 9 -47 11 -177 15 -192 5z"/>
<path d="M3978 2035 c-2 -1 -30 -6 -63 -10 -33 -3 -62 -9 -65 -12 -10 -10 -5
-1933 5 -1930 5 2 22 0 38 -4 15 -4 27 -5 27 -1 0 4 11 7 25 7 14 0 25 -3 25
-7 0 -4 14 -3 30 2 19 5 30 5 30 -1 0 -6 5 -7 11 -4 16 11 69 12 75 3 3 -5 10
-5 16 -2 6 4 26 7 45 6 l33 -1 0 424 c0 234 3 425 8 424 4 0 33 -53 65 -117
32 -64 100 -198 151 -297 51 -99 121 -235 156 -302 59 -116 84 -144 110 -128
5 3 10 1 10 -5 0 -7 6 -8 18 -1 10 5 24 6 31 1 8 -4 25 -5 40 -1 14 5 38 4 54
0 15 -4 27 -4 27 -1 0 4 11 7 25 7 14 0 25 -2 25 -5 0 -3 19 -4 42 -2 24 1 58
3 75 3 l32 1 -15 29 c-8 16 -11 29 -8 29 4 0 0 8 -8 18 -9 9 -19 28 -23 40 -4
13 -16 45 -28 70 -12 26 -22 49 -22 52 -1 3 -13 31 -28 64 -15 32 -27 60 -27
62 0 1 -13 31 -29 66 -16 35 -43 97 -61 138 -18 41 -44 100 -57 130 -14 30
-30 69 -38 85 -46 104 -47 109 -29 122 10 7 24 13 32 13 7 0 20 6 28 13 8 6
34 28 58 47 43 35 116 137 116 163 0 8 3 17 8 21 4 4 7 11 7 14 1 4 4 16 8 27
12 36 24 145 16 145 -5 0 -4 11 1 24 5 13 6 27 2 31 -4 4 -7 10 -7 13 -2 22
-18 88 -27 111 -6 14 -12 28 -13 31 -4 19 -43 82 -74 121 -104 132 -260 217
-476 260 -52 10 -398 22 -407 14z m371 -411 c113 -20 213 -102 222 -184 5 -50
-12 -89 -58 -129 -58 -52 -128 -77 -243 -87 l-65 -6 0 212 0 212 55 -6 c30 -3
70 -8 89 -12z"/>
<path d="M5346 1593 c3 -236 8 -556 10 -713 2 -157 4 -296 3 -310 0 -14 0 -29
0 -35 0 -5 2 -121 4 -257 2 -136 6 -250 10 -254 3 -3 113 -6 244 -7 l238 0 0
999 0 999 -257 3 -258 2 6 -427z"/>
<path d="M6379 2013 c-1 -5 -2 -26 -4 -48 -3 -41 -11 -133 -20 -215 -3 -25 -7
-76 -10 -115 -5 -66 -11 -139 -21 -245 -2 -25 -6 -72 -9 -105 -11 -144 -15
-200 -20 -238 -3 -23 -7 -71 -10 -107 -6 -94 -15 -189 -20 -237 -3 -23 -8 -77
-11 -120 -2 -43 -7 -97 -9 -120 -2 -24 -7 -78 -10 -120 -4 -43 -8 -94 -10
-113 -2 -19 -7 -75 -10 -125 l-6 -90 228 2 c125 1 236 2 245 2 9 1 17 9 16 18
0 16 8 223 17 413 2 41 6 134 9 205 3 72 8 173 11 225 3 52 8 160 11 240 6
148 8 160 25 160 6 0 8 -4 5 -8 -3 -5 -1 -24 4 -43 4 -19 11 -59 15 -89 10
-82 14 -107 21 -138 3 -15 7 -46 10 -70 2 -24 6 -56 9 -70 10 -50 25 -137 31
-182 6 -46 11 -79 18 -115 2 -11 7 -42 10 -68 4 -27 10 -59 12 -70 2 -12 6
-42 9 -67 2 -25 5 -45 6 -45 2 0 7 -27 13 -75 5 -37 10 -68 22 -140 4 -25 7
-50 6 -57 -2 -6 2 -15 9 -18 12 -8 417 -11 424 -3 3 2 7 22 10 44 5 47 16 112
22 139 2 11 6 38 8 60 2 22 6 51 9 65 8 42 25 143 31 185 3 23 8 52 10 65 3
14 7 41 10 60 3 19 7 47 10 62 11 62 15 85 21 138 3 30 8 58 10 61 1 3 6 28
10 55 3 27 8 58 11 69 2 11 6 34 7 50 3 30 15 107 21 135 2 8 4 21 4 28 1 6 7
12 14 12 8 0 13 -18 14 -53 1 -45 8 -149 18 -292 2 -22 4 -40 4 -40 1 0 4 -38
6 -85 9 -167 13 -209 19 -219 4 -5 2 -12 -4 -16 -6 -4 -7 -11 -3 -17 3 -7 8
-37 10 -67 2 -31 5 -87 8 -126 10 -156 17 -271 18 -292 1 -13 8 -23 17 -24 8
0 125 -1 259 -2 l243 -2 -6 80 c-3 44 -8 91 -10 105 -3 14 -8 57 -11 95 -3 39
-8 88 -10 110 -2 22 -6 66 -9 97 -3 31 -7 74 -10 95 -3 21 -8 65 -11 98 -3 33
-7 83 -10 110 -11 103 -15 152 -21 220 -6 83 -10 111 -19 125 -3 5 -1 10 5 10
6 0 8 5 4 12 -8 13 -9 17 -18 123 -3 39 -8 86 -10 105 -11 86 -23 205 -31 310
-2 19 -4 35 -5 35 -1 0 -3 23 -5 50 -2 28 -6 79 -10 115 -3 36 -7 74 -8 85 -2
20 -10 20 -344 23 -338 2 -343 2 -344 -18 -1 -11 -2 -23 -3 -27 -1 -5 -6 -33
-10 -63 -5 -30 -10 -62 -11 -71 -5 -28 -16 -93 -20 -119 -2 -14 -7 -41 -10
-60 -4 -19 -8 -44 -10 -55 -1 -11 -6 -42 -10 -70 -5 -27 -9 -59 -11 -70 -1
-11 -3 -20 -4 -20 -1 0 -3 -9 -4 -20 -2 -11 -6 -45 -11 -75 -4 -30 -8 -57 -10
-60 -2 -3 -6 -25 -9 -50 -4 -25 -8 -54 -10 -65 -3 -11 -5 -31 -6 -45 -1 -38
-16 -5 -23 50 -3 25 -8 52 -11 60 -2 8 -7 38 -10 65 -3 28 -8 61 -11 75 -3 14
-7 39 -9 55 -5 32 -15 95 -22 135 -2 14 -7 43 -10 65 -6 41 -10 64 -17 100 -3
11 -8 42 -11 68 -4 27 -9 56 -10 65 -2 10 -7 40 -11 67 -5 28 -9 53 -11 58 -1
4 -2 12 -3 17 -1 12 -650 14 -652 3z"/>
<path d="M8514 1988 c-4 -6 -6 -1078 -4 -1898 l0 -45 458 0 c251 0 462 3 468
7 7 5 10 78 10 215 -1 178 -3 208 -16 208 -8 0 -21 4 -27 8 -7 5 -13 5 -13 0
0 -4 -29 -8 -65 -8 -36 0 -65 4 -65 8 0 5 -5 5 -11 1 -15 -9 -228 -11 -242 -2
-10 6 -18 305 -9 336 3 9 52 12 198 12 l194 0 0 215 0 215 -27 1 c-16 1 -103
1 -195 1 l-168 0 -1 32 c-1 17 -2 82 -2 143 l-2 113 27 9 c15 6 30 7 32 3 3
-6 81 -6 131 0 6 1 23 -2 38 -6 15 -3 27 -3 27 2 0 5 20 6 44 2 24 -3 53 -3
64 1 12 5 24 4 27 -1 3 -4 17 -5 33 -1 l27 7 0 212 c1 184 -1 212 -15 213
-119 5 -913 2 -916 -3z"/>
</g>
</svg>
